<?xml version="1.0" encoding="UTF-8"?>
<svg width="16px" height="16px" viewBox="0 0 16 16" version="1.1" xmlns="http://www.w3.org/2000/svg" xmlns:xlink="http://www.w3.org/1999/xlink">
    <!-- Generator: Sketch 61.2 (89653) - https://sketch.com -->
    <title>UIicon/16/certification@1x</title>
    <desc>Created with Sketch.</desc>
    <g id="UIicon/16/certification" stroke="none" stroke-width="1" fill="none" fill-rule="evenodd">
        <g id="黄v" transform="translate(2.000000, 2.000000)">
            <rect id="矩形" x="0" y="0" width="12" height="12"></rect>
            <path d="M2.80205098,1.125 L9.19794902,1.125 C9.7661071,1.125 10.2855018,1.44600356 10.5395898,1.95417961 L11.5458325,3.96666497 C11.820134,4.51526804 11.7327978,5.17560247 11.3253057,5.63403112 L6.56055699,10.9943734 C6.28536848,11.3039605 5.8113142,11.331846 5.50172712,11.0566575 C5.47976348,11.0371343 5.45896625,11.016337 5.43944301,10.9943734 L0.674694326,5.63403112 C0.267202192,5.17560247 0.17986598,4.51526804 0.454167517,3.96666497 L1.4604102,1.95417961 C1.71449822,1.44600356 2.2338929,1.125 2.80205098,1.125 Z" id="路径-7" fill="#FFAB40"></path>
            <path d="M9.15,4.05 L6.31801442,7.82598077 C6.19375035,7.99166619 5.95869985,8.02524484 5.79301442,7.90098077 C5.75900355,7.87547262 5.72957786,7.84436679 5.70599556,7.80899334 L3.19433752,4.04150629 C3.13689644,3.95534466 3.16017904,3.83893166 3.24634067,3.78149057 C3.27714083,3.76095713 3.31332977,3.75 3.35034695,3.75 L3.91715713,3.75 C4.0464534,3.75 4.16662962,3.81660739 4.2351565,3.9262504 L5.8550711,6.51811376 C5.90995429,6.60592686 6.02563248,6.63262183 6.11344558,6.57773864 C6.13304196,6.56549091 6.1502054,6.54972614 6.16407078,6.53123896 L8.1375,3.9 C8.20832039,3.80557281 8.31946601,3.75 8.4375,3.75 L9,3.75 C9.10355339,3.75 9.1875,3.83394661 9.1875,3.9375 C9.1875,3.97806942 9.17434165,4.01754447 9.15,4.05 Z" id="路径-8" fill="#FFFFFF"></path>
        </g>
        <rect id="矩形" fill="#FFFFFF" opacity="0" x="0" y="0" width="16" height="16"></rect>
    </g>
</svg>