<?xml version="1.0" encoding="UTF-8"?>
<svg width="32px" height="32px" viewBox="0 0 32 32" version="1.1" xmlns="http://www.w3.org/2000/svg" xmlns:xlink="http://www.w3.org/1999/xlink">
    <!-- Generator: Sketch 63.1 (92452) - https://sketch.com -->
    <title>ic_list_key</title>
    <desc>Created with Sketch.</desc>
    <g id="ic_list_key" stroke="none" stroke-width="1" fill="none" fill-rule="evenodd">
        <g id="编组" fill="#FFBF01">
            <circle id="椭圆形" cx="15.8967742" cy="15.8967742" r="15.8967742"></circle>
        </g>
        <g id="ic/wlan/ic_wlan备份-75" transform="translate(5.161290, 5.161290)">
            <g id="编组" transform="translate(4.445161, 3.077419)">
                <path d="M10.2124731,5.12903226 C11.1818813,5.12903226 11.9677419,5.91489288 11.9677419,6.88430108 L11.9677419,12.6060215 C11.9677419,13.5754297 11.1818813,14.3612903 10.2124731,14.3612903 L1.75526882,14.3612903 C0.785860618,14.3612903 3.4076287e-16,13.5754297 0,12.6060215 L0,6.88430108 C1.0332634e-16,5.91489288 0.785860618,5.12903226 1.75526882,5.12903226 L10.2124731,5.12903226 Z M5.98387097,7.86451613 C4.94521933,7.86451613 4.10322581,8.70650965 4.10322581,9.74516129 C4.10322581,10.7838129 4.94521933,11.6258065 5.98387097,11.6258065 C7.02252261,11.6258065 7.86451613,10.7838129 7.86451613,9.74516129 C7.86451613,8.70650965 7.02252261,7.86451613 5.98387097,7.86451613 Z" id="形状结合" fill="#FFFFFF"></path>
                <path d="M3.76129032,6.15483871 L3.76129032,2.22258065 C3.76129032,0.99508325 4.75637357,2.25487613e-16 5.98387097,0 C7.21136836,-2.25487613e-16 8.20645161,0.99508325 8.20645161,2.22258065 L8.20645161,6.15483871 L8.20645161,6.15483871" id="Stroke-58" stroke="#FFFFFF" stroke-width="1.40421505" stroke-linecap="round" stroke-linejoin="round"></path>
            </g>
        </g>
    </g>
</svg>