<?xml version="1.0" standalone="no"?><!DOCTYPE svg PUBLIC "-//W3C//DTD SVG 1.1//EN" "http://www.w3.org/Graphics/SVG/1.1/DTD/svg11.dtd"><svg t="1644933241907" class="icon" viewBox="0 0 1024 1024" version="1.1" xmlns="http://www.w3.org/2000/svg" p-id="4354" xmlns:xlink="http://www.w3.org/1999/xlink" width="200" height="200"><defs><style type="text/css"></style></defs><path d="M625.7664 449.399467l187.665067 220.5696-33.928534 19.5584-53.589333-92.7744-22.596267 13.038933 53.5552 92.7744-22.6304 13.073067-53.589333-92.7744-22.596267 13.073066 53.5552 92.7744-22.596266 13.038934-53.589334-92.7744-22.596266 13.073066 53.5552 92.7744-22.6304 13.073067-53.589334-92.7744-22.596266 13.038933 53.5552 92.808534-22.596267 13.038933-53.589333-92.7744-22.596267 13.038933 53.5552 92.808534-22.6304 13.073066-53.589333-92.808533-22.596267 13.073067 53.5552 92.808533-22.596267 13.038933-53.589333-92.808533-22.596267 13.073067 53.5552 92.808533-33.928533 19.592533-97.1776-272.7936 271.4624-156.740266z m-53.589333-92.808534l26.8288 46.421334-271.496534 156.706133-26.760533-46.421333 271.4624-156.672zM329.454933 145.066667l125.508267 217.361066-90.487467 52.224L238.933333 197.358933 329.4208 145.066667z" fill="#515151" p-id="4355"></path></svg>