<?xml version="1.0" encoding="UTF-8"?>
<svg width="50px" height="44px" viewBox="0 0 50 44" version="1.1" xmlns="http://www.w3.org/2000/svg" xmlns:xlink="http://www.w3.org/1999/xlink">
    <title>编组 11</title>
    <g id="页面-1" stroke="none" stroke-width="1" fill="none" fill-rule="evenodd" stroke-linecap="round">
        <g id="01-04写博客-CN-1920" transform="translate(-459.000000, -982.000000)" stroke="#CECECE" stroke-width="1.3">
            <g id="Input-/-32px-/-with-label-/-text-area-/-normal" transform="translate(320.000000, 919.000000)">
                <g id="上传图片" transform="translate(0.000000, 24.000000)">
                    <g id="编组-11" transform="translate(140.000000, 40.000000)">
                        <rect id="矩形" x="5.70482347" y="0" width="42.2951765" height="33.6482764" rx="2"></rect>
                        <path d="M27.6164319,38.9796927 L7.47229304,38.9796927 C6.17457188,38.9796927 5.12256101,37.9407377 5.12256101,36.6591219 L5.12256101,30.0370582 M5.12256101,22.2311127 C5.12256101,22.0608734 5.12256101,21.8973093 5.12256101,21.7404203 C5.12256101,19.1253398 5.12256101,15.2027189 5.12256101,9.97255784 C5.12256101,8.69094198 6.17457188,7.65198705 7.47229304,7.65198705 L11.3643966,7.65198705" id="形状" transform="translate(16.369496, 23.315840) rotate(-22.000000) translate(-16.369496, -23.315840) "></path>
                        <path d="M48,19.144709 C36.2513399,17.9844236 28.8105218,19.9182326 25.6775457,24.9461359" id="路径-2"></path>
                        <path d="M5.70482347,22.6255652 C14.7121296,19.5314708 22.1529477,21.078518 28.0272778,27.2667067" id="路径-5"></path>
                        <ellipse id="椭圆形" cx="19.8032156" cy="10.4425685" rx="4.69946406" ry="4.64114157"></ellipse>
                        <line x1="26.8524117" y1="8.70214044" x2="33.3141748" y2="8.70214044" id="路径-6"></line>
                        <line x1="30.3770098" y1="12.7631393" x2="38.6010719" y2="12.7631393" id="路径-8"></line>
                    </g>
                </g>
            </g>
        </g>
    </g>
</svg>