<?xml version="1.0" encoding="UTF-8"?>
<svg width="32px" height="32px" viewBox="0 0 32 32" version="1.1" xmlns="http://www.w3.org/2000/svg" xmlns:xlink="http://www.w3.org/1999/xlink">
    <!-- Generator: Sketch 63.1 (92452) - https://sketch.com -->
    <title>ic_list_xiaohu</title>
    <desc>Created with Sketch.</desc>
    <g id="ic_list_xiaohu" stroke="none" stroke-width="1" fill="none" fill-rule="evenodd">
        <g id="编组-2" fill="#FA5A59">
            <g id="编组">
                <circle id="椭圆形" cx="15.8967742" cy="15.8967742" r="15.8967742"></circle>
            </g>
        </g>
        <g id="编组" transform="translate(8.000000, 7.000000)" fill="#FFFFFF">
            <path d="M7.33080235,11.7607146 C7.33080235,13.0952471 7.86987165,14.3059792 8.74558156,15.1938684 L1.41333333,15.1931813 C0.632770887,15.1931813 -1.26453275e-16,14.5604104 0,13.7798479 L0,11.5800585 C-2.44374914e-16,9.58458588 1.61765017,7.96693571 3.61312277,7.96693571 L9.14327965,7.96544307 C8.03590022,8.8701031 7.33080235,10.234444 7.33080235,11.7607146 Z M7.3094737,9.44784991e-14 C9.32194186,9.44784991e-14 10.9533333,1.61931006 10.9533333,3.61687472 C10.9533333,5.61443937 9.32194186,7.23374943 7.3094737,7.23374943 C5.29679264,7.23374943 3.66540117,5.61443937 3.66540117,3.61687472 C3.66540117,1.61931006 5.29679264,9.44784991e-14 7.3094737,9.44784991e-14 Z" id="形状结合"></path>
            <path d="M12.19,8.12666667 C14.2389764,8.12666667 15.9,9.78769024 15.9,11.8366667 C15.9,13.8856431 14.2389764,15.5466667 12.19,15.5466667 C10.1410236,15.5466667 8.48,13.8856431 8.48,11.8366667 C8.48,9.78769024 10.1410236,8.12666667 12.19,8.12666667 Z M13.5437568,10.2050364 C13.3368073,10.077597 13.0635504,10.1063641 12.8877993,10.2856246 L12.8877993,10.2856246 L12.146,11.0406667 L11.4052326,10.2856246 C11.2075126,10.0839566 10.8863868,10.0727567 10.6750972,10.2601596 L10.6750972,10.2601596 L10.6514653,10.2811198 C10.645116,10.2867513 10.6389083,10.2925406 10.6328481,10.2984821 C10.4318662,10.4955295 10.4286766,10.818196 10.625724,11.0191779 L10.625724,11.0191779 L11.396,11.8056667 L10.625724,12.5928681 L10.5674543,12.6640297 C10.4318273,12.8640028 10.4541975,13.1384107 10.6328481,13.3135639 C10.6389083,13.3195054 10.645116,13.3252947 10.6514653,13.3309262 L10.6514653,13.3309262 L10.6750972,13.3518864 L10.7492751,13.4070096 C10.9562246,13.534449 11.2294815,13.5056819 11.4052326,13.3264214 L11.4052326,13.3264214 L12.146,12.5696667 L12.8877993,13.3264214 C13.0855193,13.5280894 13.4066451,13.5392893 13.6179347,13.3518864 L13.6179347,13.3518864 L13.6415666,13.3309262 C13.6479159,13.3252947 13.6541236,13.3195054 13.6601838,13.3135639 C13.8611657,13.1165165 13.8643553,12.79385 13.6673079,12.5928681 L13.6673079,12.5928681 L12.896,11.8056667 L13.6673079,11.0191779 L13.7255775,10.9480163 C13.8612046,10.7480432 13.8388344,10.4736353 13.6601838,10.2984821 C13.6541236,10.2925406 13.6479159,10.2867513 13.6415666,10.2811198 L13.6415666,10.2811198 L13.6179347,10.2601596 Z" id="形状结合备份"></path>
        </g>
    </g>
</svg>