<?xml version="1.0" encoding="UTF-8"?>
<svg width="16px" height="16px" viewBox="0 0 16 16" version="1.1" xmlns="http://www.w3.org/2000/svg" xmlns:xlink="http://www.w3.org/1999/xlink">
    <!-- Generator: Sketch 63.1 (92452) - https://sketch.com -->
    <title>删除16</title>
    <desc>Created with Sketch.</desc>
    <g id="删除16" stroke="none" stroke-width="1" fill="none" fill-rule="evenodd">
        <g>
            <rect id="矩形" x="0" y="0" width="16" height="16"></rect>
            <g id="trash.svg" transform="translate(1.333333, 1.333333)" fill="#000000" fill-rule="nonzero">
                <path d="M0.666666667,3.16666667 L1.21333333,3.16666667 L2.03333333,11.3666667 C2.1364173,12.3924693 3.0023772,13.1718332 4.03333333,13.1666922 L9.33333333,13.1666922 C10.3642895,13.1718332 11.2302494,12.3924693 11.3333333,11.3666667 L12,4.38 C12.0129716,4.24726928 11.9723802,4.11485669 11.8872497,4.01219941 C11.8021193,3.90954212 11.6795054,3.84514821 11.5466667,3.83333333 C11.4135589,3.81847764 11.2801318,3.85838032 11.1770348,3.94387533 C11.0739379,4.02937034 11.0100331,4.15310877 11,4.28666667 L10.3333333,11.2666667 C10.2817914,11.779568 9.8488114,12.1692499 9.33333333,12.1666667 L4,12.1666667 C3.48452193,12.1692499 3.05154198,11.779568 3,11.2666667 L2.22,3.16666667 L4,3.16666667 C4.03521053,3.17367166 4.07145613,3.17367166 4.10666667,3.16666667 L4.19333333,3.16666667 L4.26666667,3.12 L4.34666667,3.05333333 C4.36603431,3.03153462 4.38178903,3.0067772 4.39333333,2.98 C4.41491636,2.95363294 4.43285494,2.92448273 4.44666667,2.89333333 C4.44666667,2.89333333 4.44666667,2.89333333 4.44666667,2.89333333 L4.89333333,1.47333333 C4.95342943,1.26232648 5.14728169,1.11761987 5.36666667,1.12 L7.9,1.12 C8.11752681,1.11677145 8.31077419,1.25830475 8.37333333,1.46666667 L8.82,2.89333333 L8.82,2.89333333 C8.81779823,2.91327274 8.81779823,2.93339393 8.82,2.95333333 C8.83357386,2.98813533 8.85397433,3.0198694 8.88,3.04666667 L8.92666667,3.09333333 L9.02666667,3.16 L9.08,3.16 C9.13733716,3.17009119 9.19599618,3.17009119 9.25333333,3.16 L12.5866667,3.16 C12.862809,3.15999999 13.0866667,2.93614237 13.0866667,2.66 C13.0866667,2.38385763 12.862809,2.16000001 12.5866667,2.16 L9.7,2.16 L9.36666667,1.08666667 C9.17052943,0.460908459 8.58909982,0.0363296267 7.93333333,0.039976389 L5.4,0.039976389 C4.75475584,0.051718446 4.19004153,0.476598738 4,1.09333333 L3.66666667,2.16666667 L0.666666667,2.16666667 C0.390524292,2.16666667 0.166666667,2.39052429 0.166666667,2.66666667 C0.166666667,2.94280904 0.390524292,3.16666667 0.666666667,3.16666667 Z" id="路径"></path>
                <path d="M4.83333333,4.66666667 L4.83333333,10 C4.83333333,10.2761424 5.05719096,10.5 5.33333333,10.5 C5.60947571,10.5 5.83333333,10.2761424 5.83333333,10 L5.83333333,4.66666667 C5.83333333,4.39052429 5.60947571,4.16666667 5.33333333,4.16666667 C5.05719096,4.16666667 4.83333333,4.39052429 4.83333333,4.66666667 Z" id="路径"></path>
                <path d="M8,4.16666667 C7.72535862,4.17025721 7.50359054,4.39202529 7.5,4.66666667 L7.5,10 C7.5,10.2761424 7.72385763,10.5 8,10.5 C8.27614237,10.5 8.5,10.2761424 8.5,10 L8.5,4.66666667 C8.49640946,4.39202529 8.27464138,4.17025721 8,4.16666667 L8,4.16666667 Z" id="路径"></path>
            </g>
        </g>
    </g>
</svg>