<?xml version="1.0" encoding="UTF-8"?>
<svg width="16px" height="16px" viewBox="0 0 16 16" version="1.1" xmlns="http://www.w3.org/2000/svg" xmlns:xlink="http://www.w3.org/1999/xlink">
    <!-- Generator: Sketch 63.1 (92452) - https://sketch.com -->
    <title>编辑16</title>
    <desc>Created with Sketch.</desc>
    <g id="编辑16" stroke="none" stroke-width="1" fill="none" fill-rule="evenodd">
        <g>
            <rect id="矩形" x="0" y="0" width="16" height="16"></rect>
            <g id="pencil.line.svg-(1)" transform="translate(1.333333, 1.333333)" fill="#000000" fill-rule="nonzero">
                <path d="M0.626666667,12.6666667 C0.723573917,12.7596729 0.852354568,12.812139 0.986666667,12.8133445 C1.05822232,12.8138284 1.12893341,12.7978613 1.19333333,12.7666667 L5.07333333,10.9866667 C5.12888755,10.9643487 5.17893035,10.9302286 5.22,10.8866667 L12.2733333,3.85333333 C13.0356191,3.07564631 13.0356191,1.83102035 12.2733333,1.05333333 C11.5016246,0.321052076 10.2917087,0.321052076 9.52,1.05333333 L2.44,8.13333333 C2.30623121,8.25798039 2.25116721,8.44570369 2.29640964,8.62285927 C2.34165207,8.80001485 2.47998515,8.93834793 2.65714073,8.98359036 C2.83429631,9.02883279 3.02201961,8.97376879 3.14666667,8.84 L9.21333333,2.77333333 C9.21333333,2.77333333 9.21333333,2.77333333 9.21333333,2.77333333 L10.5466667,4.10666667 L10.5466667,4.10666667 L4.54666667,10.1066667 L2,11.3333333 L2.59333333,10.08 C2.7078498,9.82948419 2.60124987,9.53337327 2.35333333,9.41333333 C2.23342312,9.35458708 2.0948209,9.34695665 1.9691866,9.392185 C1.8435523,9.43741335 1.74161758,9.53163708 1.68666667,9.65333333 L0.533333333,12.12 C0.451278489,12.3043606 0.488090657,12.5199747 0.626666667,12.6666667 Z M11.2533333,3.41333333 L9.92,2.08 L9.92,2.08 L10.22,1.78 C10.5919567,1.4210193 11.1813767,1.4210193 11.5533333,1.78 C11.739321,1.95193549 11.8455585,2.1933842 11.8466713,2.44666667 C11.8474616,2.69763664 11.7464265,2.93819639 11.5666667,3.11333333 L11.2733333,3.40666667 L11.2533333,3.41333333 Z" id="形状"></path>
                <path d="M11.6666667,11.8333333 L7,11.8333333 C6.72385763,11.8333333 6.5,12.057191 6.5,12.3333333 C6.5,12.6094757 6.72385763,12.8333333 7,12.8333333 L11.6666667,12.8333333 C11.942809,12.8333333 12.1666667,12.6094757 12.1666667,12.3333333 C12.1666667,12.057191 11.942809,11.8333333 11.6666667,11.8333333 Z" id="路径"></path>
            </g>
        </g>
    </g>
</svg>