<?xml version="1.0" encoding="UTF-8"?>
<svg width="32px" height="32px" viewBox="0 0 32 32" version="1.1" xmlns="http://www.w3.org/2000/svg" xmlns:xlink="http://www.w3.org/1999/xlink">
    <!-- Generator: Sketch 63.1 (92452) - https://sketch.com -->
    <title>ic_list_email</title>
    <desc>Created with Sketch.</desc>
    <g id="ic_list_email" stroke="none" stroke-width="1" fill="none" fill-rule="evenodd">
        <g id="编组">
            <circle id="椭圆形" fill="#FFBF01" cx="15.8967742" cy="15.8967742" r="15.8967742"></circle>
            <g id="ic/wlan/ic_wlan备份-74" transform="translate(5.161290, 5.161290)" fill="#FFFFFF">
                <path d="M4.19947691,5.25693613 L9.38843081,10.3220174 C10.0797081,10.9967443 11.1862504,10.9861049 11.8644261,10.2982108 L16.7545373,5.33966993 C17.1750314,5.72475947 17.4387097,6.27829674 17.4387097,6.89341935 L17.4387097,13.6227097 C17.4387097,14.7859995 16.4956769,15.7290323 15.3323871,15.7290323 L5.52567742,15.7290323 C4.36238758,15.7290323 3.41935484,14.7859995 3.41935484,13.6227097 L3.41935484,6.89341935 C3.41935484,6.23274659 3.72352997,5.64311774 4.19947691,5.25693613 Z" id="形状结合"></path>
                <path d="M5.38358921,4.78709677 L9.59356938,9.07641752 C10.1368067,9.6298926 11.0258678,9.63819194 11.5793428,9.09495462 C11.5924213,9.08211806 11.6052473,9.0690267 11.6178133,9.05568808 L15.6391656,4.78709677 L15.6391656,4.78709677" id="Stroke-45备份"></path>
            </g>
        </g>
    </g>
</svg>