<?xml version="1.0" encoding="UTF-8"?>
<svg width="24px" height="24px" viewBox="0 0 24 24" version="1.1" xmlns="http://www.w3.org/2000/svg" xmlns:xlink="http://www.w3.org/1999/xlink">
    <!-- Generator: Sketch 63.1 (92452) - https://sketch.com -->
    <title>ic_dele</title>
    <desc>Created with Sketch.</desc>
    <g id="控件" stroke="none" stroke-width="1" fill="none" fill-rule="evenodd">
        <g id="ic_dele">
            <g>
                <rect id="矩形" opacity="0.1" x="0" y="0" width="24" height="24"></rect>
                <path d="M13.898,2 C14.8241068,2 15.6490708,2.56522808 15.9879595,3.41434912 L16.045711,3.5768175 L16.55,5.189 L21,5.19 C21.4142136,5.19 21.75,5.52578644 21.75,5.94 C21.75,6.31969577 21.4678461,6.63349096 21.1017706,6.68315338 L21,6.69 L16.018126,6.6899744 C15.9779883,6.6909642 15.9381647,6.68869579 15.8989952,6.6833469 L15.8006203,6.66320928 C15.765593,6.65357434 15.7315914,6.64146283 15.6988159,6.62707485 C15.6920013,6.62389782 15.6845119,6.6204723 15.6770813,6.61692557 C15.6529506,6.60556041 15.6301018,6.59310331 15.60801,6.5795336 C15.5965512,6.57240962 15.585029,6.56491919 15.5737133,6.5571141 C15.5580647,6.54632698 15.5428479,6.53491773 15.5280941,6.5229597 C15.5165782,6.51373665 15.5050613,6.50385223 15.4938381,6.4936103 C15.4793239,6.4801644 15.4654186,6.46640563 15.4520652,6.45212442 C15.4418842,6.44153983 15.4311923,6.42939739 15.4208792,6.41688214 C15.4082417,6.40123573 15.3966243,6.3859569 15.385595,6.37023541 C15.377607,6.35906835 15.3699008,6.34738019 15.3625051,6.33543848 C15.3517622,6.31798785 15.3418242,6.30045019 15.3325898,6.28249143 C15.3286276,6.2746608 15.3248744,6.2669999 15.3212429,6.25925371 C15.3069583,6.228239 15.2979291,6.20553264 15.2900069,6.18231361 L15.284289,6.1641825 L14.6142622,4.02509682 C14.5272752,3.74727102 14.2886904,3.54846644 14.0059062,3.50771759 L13.898,3.5 L10.103,3.5 C9.81033552,3.5 9.54945058,3.66761273 9.42618321,3.92493732 L9.38661549,4.02548714 L8.71561549,6.16448714 L8.70999315,6.18231361 C8.70207089,6.20553264 8.69304166,6.228239 8.68296837,6.25036978 L8.71561549,6.16448714 C8.70267113,6.2057509 8.68649018,6.24510336 8.66743978,6.28235273 C8.65872959,6.29937316 8.64942732,6.31588278 8.6395336,6.33199005 C8.63145378,6.34532036 8.62309011,6.35807357 8.61437527,6.37051711 C8.60414337,6.3848626 8.59337268,6.3991066 8.58211865,6.4129417 C8.57301274,6.42442181 8.56346075,6.43548651 8.55361507,6.44623937 C8.54196471,6.45870933 8.53014767,6.47077939 8.5179375,6.48244135 C8.50477085,6.49521427 8.49029995,6.50800633 8.47538247,6.52020557 C8.46640883,6.5274774 8.4576495,6.53433628 8.44873696,6.54100156 C8.43285945,6.55286216 8.41616413,6.56430123 8.39904708,6.57504582 C8.38704237,6.58270594 8.37469457,6.58999892 8.36212632,6.59694171 C8.35024635,6.60332346 8.33860976,6.60933886 8.3268228,6.61504824 C8.30856663,6.62411331 8.28914536,6.63256237 8.26931809,6.64019353 C8.25921894,6.64389252 8.24958356,6.64737465 8.23987516,6.65066043 C8.22144895,6.65704863 8.20226797,6.66268981 8.18278484,6.66756891 C8.16749259,6.67134951 8.15219679,6.6747013 8.13678099,6.67757384 C8.12545323,6.67965012 8.11365613,6.68154097 8.10177056,6.68315338 L8.08481454,6.68537757 C8.06664392,6.68745529 8.04834383,6.68887072 8.02994776,6.68960635 L8,6.69 L5.329,6.689 L6.54427789,18.8395722 C6.61614814,19.5582746 7.18787862,20.1164852 7.89407592,20.1834541 L8.037,20.1902 L15.964,20.1902 C16.686906,20.1902 17.298955,19.677421 17.4357953,18.9811942 L17.4567193,18.8396004 L18.5037193,8.36560043 C18.5449195,7.95344097 18.9124401,7.65271908 19.3245996,7.69391929 C19.7024124,7.73168614 19.9865867,8.04365279 19.9995908,8.41285269 L19.9962807,8.51479957 L18.9492843,18.9887636 C18.8018966,20.4639219 17.6031836,21.5998671 16.1407122,21.6850653 L15.964,21.6902 L8.037,21.6902 C6.55501595,21.6902 5.30472019,20.6103914 5.07441161,19.1640865 L5.05172097,18.9888164 L3.821,6.689 L3,6.69 C2.58578644,6.69 2.25,6.35421356 2.25,5.94 C2.25,5.56030423 2.53215388,5.24650904 2.89822944,5.19684662 L3,5.19 L4.40103182,5.18875074 C4.40910418,5.18768098 4.41722204,5.186737 4.42538359,5.18592097 C4.48366864,5.18009336 4.54106115,5.18110352 4.59676452,5.18829965 L7.449,5.189 L7.95526219,3.57690318 C8.23199279,2.69305953 9.01804905,2.07608 9.93052313,2.00655246 L10.103,2 L13.898,2 Z M10,8.19 C10.3796958,8.19 10.693491,8.47215388 10.7431534,8.83822944 L10.75,8.94 L10.75,16.94 C10.75,17.3542136 10.4142136,17.69 10,17.69 C9.62030423,17.69 9.30650904,17.4078461 9.25684662,17.0417706 L9.25,16.94 L9.25,8.94 C9.25,8.52578644 9.58578644,8.19 10,8.19 Z M14,8.19 C14.3796958,8.19 14.693491,8.47215388 14.7431534,8.83822944 L14.75,8.94 L14.75,16.94 C14.75,17.3542136 14.4142136,17.69 14,17.69 C13.6203042,17.69 13.306509,17.4078461 13.2568466,17.0417706 L13.25,16.94 L13.25,8.94 C13.25,8.52578644 13.5857864,8.19 14,8.19 Z" id="形状结合" fill="#191919"></path>
            </g>
        </g>
    </g>
</svg>