<?xml version="1.0" encoding="UTF-8"?>
<svg width="24px" height="24px" viewBox="0 0 24 24" version="1.1" xmlns="http://www.w3.org/2000/svg" xmlns:xlink="http://www.w3.org/1999/xlink">
    <!-- Generator: Sketch 63.1 (92452) - https://sketch.com -->
    <title>ic_edit</title>
    <desc>Created with Sketch.</desc>
    <g id="控件" stroke="none" stroke-width="1" fill="none" fill-rule="evenodd">
        <g id="ic_edit">
            <g>
                <rect id="矩形" opacity="0.1" x="0" y="0" width="24" height="24"></rect>
                <path d="M20.3757513,3.580691 C21.5103079,4.6804768 21.5691247,6.46674199 20.5421016,7.63661008 L20.4080675,7.77953894 L9.82406751,18.3635389 C9.78205696,18.4055495 9.73527902,18.4423443 9.6847586,18.4732108 L9.6062992,18.514975 L3.78502708,21.1820997 C3.17983292,21.4592641 2.55870423,20.8740287 2.75795037,20.2713493 L2.79409464,20.1809222 L4.55509464,16.4379222 C4.73143179,16.0631181 5.17822002,15.9022289 5.55302408,16.0785661 C5.89659447,16.2402085 6.06041698,16.6291049 5.94951031,16.981493 L5.91238022,17.0764955 L5.02293743,18.9653089 L8.85693743,17.2083089 L17.853,8.212 L17.8189073,8.18253894 L15.8399073,6.20353894 L15.809,6.167 L6.71306751,15.2635389 C6.4201743,15.5564322 5.94530056,15.5564322 5.65240734,15.2635389 C5.38614078,14.9972724 5.36193473,14.5806087 5.57978919,14.2869972 L5.65240734,14.2028788 L16.2424073,3.61287877 C17.3801937,2.47509237 19.2208094,2.46062537 20.3757513,3.580691 Z M19.4971374,19.7503089 C19.911351,19.7503089 20.2471374,20.0860953 20.2471374,20.5003089 C20.2471374,20.8800046 19.9649835,21.1937998 19.598908,21.2434622 L19.4971374,21.2503089 L12.4971374,21.2503089 C12.0829239,21.2503089 11.7471374,20.9145224 11.7471374,20.5003089 C11.7471374,20.1206131 12.0292913,19.8068179 12.3953669,19.7571555 L12.4971374,19.7503089 L19.4971374,19.7503089 Z M17.4116495,4.57529525 L17.3030675,4.67353894 L16.864,5.112 L16.9005675,5.14287877 L18.8795675,7.12187877 L18.909,7.156 L19.3477131,6.71857319 C19.8834653,6.18343823 19.9106638,5.3347945 19.4337102,4.76720095 L19.3315988,4.65760574 C18.8003061,4.14235679 17.9731074,4.11639441 17.4116495,4.57529525 Z" id="形状结合" fill="#191919"></path>
            </g>
        </g>
    </g>
</svg>