<?xml version="1.0" encoding="UTF-8"?>
<svg width="24px" height="24px" viewBox="0 0 24 24" version="1.1" xmlns="http://www.w3.org/2000/svg" xmlns:xlink="http://www.w3.org/1999/xlink">
    <!-- Generator: Sketch 63.1 (92452) - https://sketch.com -->
    <title>UIicon/24/应用开发/line</title>
    <desc>Created with Sketch.</desc>
    <g id="UIicon/24/应用开发/line" stroke="none" stroke-width="1" fill="none" fill-rule="evenodd">
        <g fill="#000000" id="形状结合">
            <g>
                <path d="M21.6286087,7.5 C22.3401381,7.5 22.9271145,8.04149964 22.9937085,8.73129967 L23,8.86227907 L23,19.1377209 C23,19.8445226 22.4548783,20.4275988 21.7604642,20.4937503 L21.6286087,20.5 L17.3713913,20.5 C16.6598619,20.5 16.0728855,19.9585004 16.0062915,19.2687003 L16,19.1377209 L16,8.86227907 C16,8.15547743 16.5451217,7.57240122 17.2395358,7.5062497 L17.3713913,7.5 L21.6286087,7.5 Z M18.1052632,3.75 C19.5641632,3.75 20.75,4.92348436 20.75,6.375 C20.75,6.78921356 20.4142136,7.125 20,7.125 C19.6203042,7.125 19.306509,6.84284612 19.2568466,6.47677056 L19.25,6.375 C19.25,5.7967513 18.805064,5.31790017 18.2302994,5.25662335 L18.1052632,5.25 L3.89473684,5.25 C3.3030329,5.25 2.81865,5.69030122 2.75669541,6.25272691 L2.75,6.375 L2.75,17.625 C2.75,18.2032487 3.19493597,18.6820998 3.76970064,18.7433766 L3.89473684,18.75 L6,18.75 C6.41421356,18.75 6.75,19.0857864 6.75,19.5 C6.75,19.8796958 6.46784612,20.193491 6.10177056,20.2431534 L6,20.25 L3.89473684,20.25 C2.49194837,20.25 1.34162216,19.1650477 1.25521066,17.7911978 L1.25,17.625 L1.25,6.375 C1.25,4.97931189 2.34637281,3.84067932 3.72766598,3.75515682 L3.89473684,3.75 L18.1052632,3.75 Z M12,7.75 C12.9181734,7.75 13.6711923,8.45711027 13.7441988,9.35647279 L13.75,9.5 L13.7515269,11.4521129 C14.3712096,12.1210052 14.75,13.016267 14.75,14 C14.75,14.983733 14.3712096,15.8789948 13.7515269,16.5478871 L13.75,18.5 C13.75,19.4181734 13.0428897,20.1711923 12.1435272,20.2441988 L12,20.25 L10,20.25 C9.0818266,20.25 8.32880766,19.5428897 8.2558012,18.6435272 L8.25,18.5 L8.25030355,16.5498615 C7.62953645,15.880757 7.25,14.9847012 7.25,14 C7.25,13.0152988 7.62953645,12.119243 8.25030355,11.4501385 L8.25,9.5 C8.25,8.5818266 8.95711027,7.82880766 9.85647279,7.7558012 L10,7.75 L12,7.75 Z M21,9 L18,9 C17.7238576,9 17.5,9.22385763 17.5,9.5 L17.5,18.5 C17.5,18.7761424 17.7238576,19 18,19 L21,19 C21.2761424,19 21.5,18.7761424 21.5,18.5 L21.5,9.5 C21.5,9.22385763 21.2761424,9 21,9 Z M12.2506798,17.5363775 C11.8595141,17.67472 11.4385483,17.75 11,17.75 C10.5618249,17.75 10.1412025,17.6748481 9.75031895,17.5367306 L9.75,18.5 C9.75,18.6183467 9.83223341,18.7174868 9.94267729,18.7433973 L10,18.75 L12,18.75 C12.1183467,18.75 12.2174868,18.6677666 12.2433973,18.5573227 L12.25,18.5 Z M11,11.75 C9.75735931,11.75 8.75,12.7573593 8.75,14 C8.75,15.2426407 9.75735931,16.25 11,16.25 C12.2426407,16.25 13.25,15.2426407 13.25,14 C13.25,12.7573593 12.2426407,11.75 11,11.75 Z M12,9.25 L10,9.25 C9.88165327,9.25 9.78251318,9.33223341 9.75660268,9.44267729 L9.75,9.5 L9.75031895,10.4632694 C10.1412025,10.3251519 10.5618249,10.25 11,10.25 C11.4385483,10.25 11.8595141,10.32528 12.2506798,10.4636225 L12.25,9.5 C12.25,9.38165327 12.1677666,9.28251318 12.0573227,9.25660268 L12,9.25 Z"></path>
            </g>
        </g>
    </g>
</svg>