<?xml version="1.0" encoding="UTF-8"?>
<svg width="16px" height="16px" viewBox="0 0 16 16" version="1.1" xmlns="http://www.w3.org/2000/svg" xmlns:xlink="http://www.w3.org/1999/xlink">
    <!-- Generator: Sketch 63.1 (92452) - https://sketch.com -->
    <title>Public Icon / 16 / dropdown-S / active</title>
    <desc>Created with Sketch.</desc>
    <g id="Public-Icon-/-16-/-dropdown-S-/-active" stroke="none" stroke-width="1" fill="none" fill-rule="evenodd">
        <path d="M9.52082903,3.64644661 C9.71609117,3.45118446 10.0326737,3.45118446 10.2279358,3.64644661 C10.4015022,3.82001296 10.4207873,4.08943736 10.2857913,4.2843055 L10.2279358,4.35355339 L6.65600588,7.92548332 C6.62564412,7.95584508 6.61801437,8.00168484 6.63320508,8.03981508 L6.65600588,8.07451668 L10.2279358,11.6464466 C10.423198,11.8417088 10.423198,12.1582912 10.2279358,12.3535534 C10.0543695,12.5271197 9.78494506,12.5464049 9.59007692,12.4114088 L9.52082903,12.3535534 L5.9488991,8.78162346 C5.54831138,8.38103574 5.52031916,7.74784809 5.86319198,7.31460862 L5.9488991,7.21837654 L9.52082903,3.64644661 Z" id="Stroke-1-Copy" fill="#000000" transform="translate(8.000000, 8.000000) scale(1, -1) rotate(-90.000000) translate(-8.000000, -8.000000) "></path>
    </g>
</svg>