<?xml version="1.0" encoding="UTF-8"?>
<svg width="16px" height="16px" viewBox="0 0 16 16" version="1.1" xmlns="http://www.w3.org/2000/svg" xmlns:xlink="http://www.w3.org/1999/xlink">
    <!-- Generator: Sketch 52.5 (67469) - http://www.bohemiancoding.com/sketch -->
    <title>Icon / 16*16 / refresh / normal</title>
    <desc>Created with Sketch.</desc>
    <g id="Icon-/-16*16-/-refresh-/-normal" stroke="none" stroke-width="1" fill="none" fill-rule="evenodd">
        <g>
            <rect id="矩形" x="0" y="0" width="16" height="16"></rect>
            <g id="arrow.2.flat.clockwise.fill.svg" transform="translate(1.000000, 3.000000)" fill="#328DFF" fill-rule="nonzero">
                <path d="M12.6520699,2.15003088 C12.4770167,2.00490146 12.235388,1.96132477 12.0182031,2.03571572 C11.8010181,2.11010667 11.6412724,2.29116351 11.5991407,2.51068388 C11.5570089,2.73020425 11.6388919,2.95483778 11.8139452,3.09996719 C12.6144264,3.78416087 12.8974534,4.87562742 12.525863,5.84541089 C12.1542726,6.81519435 11.2048432,7.462917 10.1376957,7.47467388 L4.65764928,7.47467388 C4.3973781,7.47593326 4.16341589,7.62877261 4.06451485,7.8621479 C3.94671378,8.09786396 3.99304015,8.37978 4.18056289,8.56835055 L5.46998557,9.81826675 C5.72144714,10.0605778 6.12756699,10.0605778 6.37902856,9.81826675 C6.62899836,9.57450968 6.62899836,9.1808329 6.37902856,8.93707583 L6.21140361,8.76833714 L10.1312486,8.76833714 C11.7508907,8.76845793 13.1991327,7.79046152 13.7602517,6.31767488 C14.3213706,4.84488823 13.8765509,3.18917063 12.6456228,2.16877962 L12.6520699,2.15003088 Z" id="路径"></path>
                <path d="M1.3472483,7.84925672 C1.61643274,8.07466971 2.02128291,8.04374561 2.25150645,7.78018581 C2.48172998,7.516626 2.45014593,7.12023523 2.18096148,6.89482225 C1.38469362,6.20738875 1.10315644,5.11075385 1.47279094,4.13637824 C1.84242544,3.16200263 2.78685733,2.51121286 3.84838785,2.49940031 L9.29958944,2.49940031 C9.57496976,2.52433861 9.83566125,2.37362555 9.94635716,2.12548575 C10.0570531,1.87734595 9.99281763,1.58767626 9.786991,1.406824 L8.50435533,0.150989162 C8.24990589,-0.0623626064 7.87060878,-0.0480181304 7.63372583,0.18391513 C7.39684287,0.41584839 7.38219226,0.787220034 7.60009718,1.03635272 L7.79249253,1.22472795 L3.84838785,1.22472795 C2.23727084,1.22460659 0.796651809,2.20723404 0.23848637,3.68699467 C-0.31967907,5.16675529 0.122799358,6.83031311 1.3472483,7.8555359 L1.3472483,7.84925672 Z" id="路径"></path>
            </g>
        </g>
    </g>
</svg>