<?xml version="1.0" encoding="UTF-8"?>
<svg width="240px" height="216px" viewBox="0 0 240 216" version="1.1" xmlns="http://www.w3.org/2000/svg" xmlns:xlink="http://www.w3.org/1999/xlink">
    <!-- Generator: Sketch 63.1 (92452) - https://sketch.com -->
    <title>pic/ null2</title>
    <desc>Created with Sketch.</desc>
    <defs>
        <linearGradient x1="25.0006721%" y1="50%" x2="25.0006721%" y2="100%" id="linearGradient-1">
            <stop stop-color="#FFD23D" offset="0%"></stop>
            <stop stop-color="#FFFFFF" offset="100%"></stop>
        </linearGradient>
        <linearGradient x1="-5.73963185%" y1="1.46367379%" x2="-5.73963185%" y2="100%" id="linearGradient-2">
            <stop stop-color="#EFF0F2" offset="0%"></stop>
            <stop stop-color="#FFFFFF" offset="100%"></stop>
        </linearGradient>
        <linearGradient x1="-1.47723369%" y1="0%" x2="-1.47723369%" y2="99.7820566%" id="linearGradient-3">
            <stop stop-color="#EFF0F2" offset="0%"></stop>
            <stop stop-color="#FFFFFF" offset="100%"></stop>
        </linearGradient>
        <linearGradient x1="25%" y1="50%" x2="25%" y2="100%" id="linearGradient-4">
            <stop stop-color="#EFF0F2" offset="0%"></stop>
            <stop stop-color="#FFFFFF" offset="100%"></stop>
        </linearGradient>
    </defs>
    <g id="pic/-null2" stroke="none" stroke-width="1" fill="none" fill-rule="evenodd">
        <g id="编组-6">
            <path d="M187.629097,33.8336707 C187.629097,40.9130454 193.367156,46.6514492 200.445842,46.6514492 C207.524183,46.6514492 213.262587,40.9133899 213.262587,33.8340152 C213.262587,26.7556742 207.524183,21.0172703 200.445842,21.0172703 C193.367156,21.0169258 187.629097,26.7553297 187.629097,33.8336707" id="路径" fill="url(#linearGradient-1)"></path>
            <path d="M237.994746,56.8823808 C237.712908,54.7623929 235.902321,53.1254576 233.704811,53.1254576 C233.243464,53.1254576 232.799001,53.1991903 232.381756,53.3325294 C232.162625,49.7781989 229.211938,46.9629183 225.602481,46.9629183 C225.665759,46.9620355 225.729047,46.9620355 225.792325,46.9629183 C224.576424,45.1247685 222.49158,43.9119686 220.12283,43.9119686 C216.370731,43.9119686 213.328739,46.9536156 213.328739,50.7060597 C213.328739,51.2562987 213.395926,51.7906887 213.519618,52.3030277 C213.361816,52.2858004 213.201947,52.2751195 213.039321,52.2751195 C210.646798,52.2751195 208.707007,54.2149102 208.707007,56.6077781 C208.707007,56.6363754 208.710797,56.663939 208.711486,56.6925363 L239.778113,56.6925363 L237.994746,56.8823808 Z" id="路径" fill="url(#linearGradient-2)"></path>
            <path d="M217.604548,54.421982 C216.404152,45.394203 208.693914,38.4237047 199.337439,38.4237047 C197.372152,38.4237047 195.480942,38.7375856 193.704122,39.3064301 C192.770748,24.1712391 180.20621,12.1831259 164.836039,12.1831259 C165.105346,12.1793691 165.374692,12.1793691 165.643998,12.1831259 C152.873078,5.16473578 143.99621,1.59374072e-14 133.909643,1.59374072e-14 C117.932038,1.59374072e-14 104.979543,12.9524958 104.979543,28.9301003 C104.979543,31.2730092 105.265171,33.5494207 105.791981,35.7310823 C105.752358,35.7312087 105.712735,35.7312087 105.673113,35.7310823 C95.4852491,35.7310823 87.2251174,43.9901805 87.2251174,54.1790775 C87.2251174,54.300702 87.2409664,54.4188811 87.2437228,54.5408502 L217.604548,54.5408502 L217.604548,54.421982 Z" id="路径" fill="url(#linearGradient-3)" opacity="0.9"></path>
            <path d="M139.737284,76.1721004 C138.611654,67.7086869 131.383781,61.1740385 122.611999,61.1740385 C120.76937,61.1740385 118.996339,61.4682803 117.330807,62.0016366 C116.455661,47.8122227 104.676343,36.5734958 90.2667643,36.5734958 C88.0754554,36.5734958 85.9465093,36.8398295 83.9057668,37.3308067 C79.0514665,29.993712 70.7296611,25.1518153 61.2732676,25.1518153 C46.2941556,25.1518153 34.1513416,37.2946294 34.1513416,52.2737413 C34.1513416,54.4702184 34.4193979,56.6043327 34.9127869,58.6495542 C34.875691,58.6496721 34.8385947,58.6496721 34.8014988,58.6495542 C23.4449373,58.5382661 15.7009346,66.2812352 15.7009346,75.8330677 C15.7009346,75.9474568 15.71575,76.0580559 15.7185064,76.1721004 L139.737284,76.1721004 Z" id="路径" fill="url(#linearGradient-4)"></path>
            <path d="M29.2877385,89.2320944 C29.0059003,87.1121065 27.1953142,85.4751712 24.9978035,85.4751712 C24.5364572,85.4751712 24.0919936,85.5489039 23.6747491,85.682243 C23.4556182,82.1279125 20.5049313,79.3126319 16.8954735,79.3126319 C16.958752,79.3117491 17.0220396,79.3117491 17.0853181,79.3126319 C15.8694173,77.4744821 13.784573,76.2616822 11.4158232,76.2616822 C7.66372367,76.2616822 4.6217322,79.3033292 4.6217322,83.0557733 C4.6217322,83.6060123 4.68891856,84.1404023 4.81261036,84.6527413 C4.65480856,84.635514 4.49493949,84.6248331 4.33231405,84.6248331 C1.93979069,84.6248331 3.45310488e-13,86.5646238 3.45310488e-13,88.9574917 C3.45310488e-13,88.986089 0.00344545415,89.0136526 0.0044790904,89.0422499 L31.0711056,89.0422499 L29.2877385,89.2320944 Z" id="路径" fill="url(#linearGradient-2)"></path>
        </g>
        <g id="编组-15" transform="translate(89.000000, 75.000000)">
            <g id="n6vpn-link" transform="translate(2.592593, 128.765432)" fill="#CFD9E0" fill-rule="nonzero">
                <path d="M54.1582894,2.72446226 C36.5404925,-0.376879696 18.1873804,-0.289517951 0.655916138,3.34764271 C0.41987316,3.41666217 0.247278552,3.61485028 0.215139377,3.85378085 C0.183000203,4.09271142 0.297310029,4.32782679 0.507066891,4.45422482 C2.92222497,5.78598716 5.4672664,6.87857313 8.10433244,7.71572998 C7.56983132,8.07578824 7.06875759,8.4811571 6.60690902,8.92714618 C6.41157385,9.12567347 6.3550162,9.41853197 6.46285173,9.67308242 C6.57068726,9.92763287 6.82243117,10.09552 7.1040655,10.1007056 C21.4829737,11.4508558 35.9783389,11.0282086 50.2495081,8.84269649 C50.8597901,8.74951063 50.8478821,7.91957405 50.4072883,7.64001646 L47.8411273,6.02382418 C50.1596387,5.97884239 52.413836,5.27015369 54.3250005,3.98538345 C54.7775022,3.6825294 54.8013181,2.84094459 54.1582894,2.72446226 L54.1582894,2.72446226 Z" id="n6vpn"></path>
            </g>
            <g id="编组" transform="translate(24.682788, 15.541014)" fill="#F3E8E0">
                <g id="n6vpo-link">
                    <path d="M0.0205689897,6.89518243 C1.42840206,6.40381212 1.0398767,3.77326688 0.893608329,2.17574202 C0.749625402,0.575931711 6.37867224,0.146268371 6.37867224,0.146268371 L9.37260296,1.71408247 L10.6067423,2.17574202 C10.6067423,2.17574202 9.95082012,5.985576 11.2626646,7.23114259 C12.574509,8.47442375 3.83268841,8.56812692 3.83268841,8.56812692 L0.0205689897,6.89518243 Z" id="n6vpo"></path>
                </g>
            </g>
            <g id="编组" transform="translate(21.483167, 23.082977)" fill="#F7F9FA" fill-rule="nonzero">
                <g id="n6vpp-link">
                    <path d="M0.109701278,2.29458507 C3.29332379,-0.111986722 14.0509054,-1.2615647 17.8447413,2.29458507 C11.7106115,8.33044082 0.564504494,4.4497581 0.564504494,4.4497581 L0.109701278,2.29458507 Z" id="n6vpp"></path>
                </g>
            </g>
            <path d="M26.0631954,12.6522141 C25.9866446,13.2919802 25.6583839,13.8748941 25.1510074,14.272046 C24.6436308,14.6691979 23.9989433,14.8478647 23.3595159,14.7685346 C22.0336768,14.542407 21.1380261,13.2897201 21.3528967,11.9620102 C21.4294475,11.3222441 21.7577081,10.7393302 22.2650847,10.3421783 C22.7724613,9.94502639 23.4171488,9.76635964 24.0565761,9.84568973 C25.3821333,10.0742341 26.278027,11.3243715 26.0631954,12.6522141 L26.0631954,12.6522141 Z" id="n6vpq" fill="#F3E8E0"></path>
            <path d="M39.4833184,12.7002084 C39.4067676,13.3399745 39.078507,13.9228884 38.5711304,14.3200403 C38.0637538,14.7171922 37.4190664,14.895859 36.779639,14.8165289 C35.4540819,14.5879846 34.562759,13.3355616 34.7775907,12.0100045 C34.8541414,11.3702385 35.1824021,10.7873245 35.6897787,10.3901726 C36.1971553,9.9930207 36.8418427,9.81435395 37.4812701,9.89368403 C38.8068272,10.1222284 39.6981501,11.3746513 39.4833184,12.7002084 Z" id="n6vpr" fill="#F3E8E0"></path>
            <g id="n6vps-link" transform="translate(22.625889, 0.000000)" fill="#201E24" fill-rule="nonzero">
                <path d="M2.9139402,1.83978185 C2.36771926,2.04318631 0.955315298,3.86697006 0.774765278,4.40862012 C-0.022854433,6.78776659 -0.299393072,11.9437267 1.03073493,15.7444189 C2.5756946,20.1507536 7.60595529,21.7368512 7.60595529,21.7368512 C7.60595529,21.7368512 12.6430723,21.1929157 14.0051965,16.5626076 C15.3673207,11.9345849 15.8952581,7.33627298 14.0646181,4.42233278 C12.976747,2.67168321 10.0216689,0.084561402 7.47339958,0.0662778556 C5.7273209,0.0662778556 5.33879554,0.500512082 3.71155992,1.12215266 L2.9139402,1.83978185 Z" id="n6vps"></path>
            </g>
            <g id="编组" transform="translate(31.539118, 2.513988)" fill="#333333">
                <path d="M5.14224742,1.91977237 C4.59831191,1.05130392 3.48530103,0.525651958 2.18945468,0.210260783 C3.53786622,2.59626359 4.25549542,5.29994301 3.90353715,8.07218573 C3.63385484,10.2319296 2.41571357,16.2197911 0.0251398763,18.9211851 C1.61809385,18.4229584 4.17093402,17.1568228 5.08054045,14.0600472 C6.45180643,9.43659538 6.98202927,4.83371257 5.14453286,1.91977237 L5.14224742,1.91977237 Z" id="n6vpt"></path>
            </g>
            <g id="编组" transform="translate(18.055002, 117.243241)" fill="#C7EBFF" fill-rule="nonzero">
                <g id="n6vpu-link">
                    <path d="M6.54322416,8.03561863 C6.63007101,6.17298235 5.5056329,2.98021806 5.86216206,0.164551917 C3.78240866,1.60438119 2.38828825,3.2407586 0.0937031752,2.53684206 C0.367956371,5.02111892 0.521081072,7.46425781 0.665064,9.02064469 C2.5391275,10.1542246 4.99140816,9.45487892 6.54322416,8.03790408 L6.54322416,8.03561863 Z" id="n6vpu"></path>
                </g>
            </g>
            <g id="编组" transform="translate(18.512091, 125.242293)" fill="#FFFFFF">
                <g id="n6vpv-link">
                    <path d="M0.198833567,1.02159315 C0.239971546,1.47868181 0.169122804,1.5678141 0.198833567,1.92434326 C0.85932668,9.6491416 2.40200091,6.53179694 6.04956841,5.24509237 C6.01071587,3.83497385 5.98100511,2.19174012 6.08156461,0.0342816495 C4.5343195,1.45582738 2.06832618,1.65466095 0.198833567,1.02159315 L0.198833567,1.02159315 Z" id="n6vpv"></path>
                </g>
            </g>
            <g id="编组" transform="translate(16.226647, 126.385014)" fill="#777777">
                <g id="n6vpw-link">
                    <path d="M8.33044082,0.139412041 C8.15217624,0.685632989 7.46197237,0.0777050721 6.47923175,0.319962062 C5.05082969,0.671920329 2.91851109,2.2854433 2.51170218,0.182835464 C2.51170218,0.182835464 2.39057369,0.713058309 2.26715975,1.50382169 C2.26715975,1.50382169 2.0111901,2.86594589 1.19071596,3.4098814 C0.370241814,3.9538169 -0.372527257,7.22200082 0.518795629,7.5693882 C2.37457559,8.26416296 2.53684206,9.43659538 5.08054045,9.36117575 C6.41066845,9.53258399 7.75679455,9.28118523 8.93379785,8.64126111 C10.5976006,7.74993822 8.36015158,0.0479943092 8.33044082,0.139412041 L8.33044082,0.139412041 Z" id="n6vpw"></path>
                </g>
            </g>
            <g id="编组" transform="translate(16.226647, 126.385014)" fill="#333333">
                <g id="n6vpx-link">
                    <path d="M1.59295398,6.5455096 C1.22728305,4.68287332 2.18716924,2.51855851 4.08408717,2.11174961 C5.02340437,1.91291604 6.01071587,2.00433377 6.96374573,1.97005212 C7.57624453,1.96548124 8.181887,1.82606919 8.73496428,1.55867233 C8.62656038,1.07844651 8.49151034,0.604626884 8.33044082,0.139412041 C8.15217624,0.683347546 7.46197237,0.0777050721 6.47923175,0.319962062 C5.05082969,0.669634886 2.91851109,2.2854433 2.51170218,0.182835464 C2.51170218,0.182835464 2.39057369,0.710772866 2.26715975,1.50382169 C2.26715975,1.50382169 2.0111901,2.86594589 1.19071596,3.4098814 C0.370241814,3.9538169 -0.372527257,7.22200082 0.518795629,7.56710276 C1.83978185,8.06304395 2.30372684,8.79438581 3.37559975,9.15091496 C2.44304558,8.57009404 1.79649197,7.62513107 1.59295398,6.5455096 L1.59295398,6.5455096 Z" id="n6vpx"></path>
                </g>
            </g>
            <g id="编组" transform="translate(16.226647, 132.555711)" fill="#000000">
                <g id="n6vpy-link">
                    <path d="M6.05871018,1.90834515 C4.07723084,2.04547175 1.48782359,1.7895021 0.121128495,0.171408247 C0.0937031752,0.781621608 0.20111901,1.2775628 0.518795629,1.39640585 C2.37457559,2.09346606 2.53455662,3.26361303 5.08054045,3.19047884 C6.41066845,3.36188709 7.75679455,3.10820288 8.93379785,2.46827876 C9.28575612,2.28087241 9.46173525,1.78493122 9.52115678,1.12672355 C8.41049726,1.55207255 7.24438779,1.8153131 6.05871018,1.90834515 L6.05871018,1.90834515 Z" id="n6vpy"></path>
                </g>
            </g>
            <g id="编组" transform="translate(36.567093, 118.614507)" fill="#C7EBFF" fill-rule="nonzero">
                <g id="n6vpz-link">
                    <path d="M0.692489319,7.12144131 C0.573966233,4.80747505 0.365834795,2.49896958 0.0685632989,0.20111901 C2.1483167,1.64094829 4.84971068,2.32658128 7.14658119,1.62266474 C6.87461344,4.10922705 6.71920329,6.55008049 6.57522037,8.10875282 C4.69430053,9.24233269 2.24430532,8.54298705 0.692489319,7.12144131 L0.692489319,7.12144131 Z" id="n6vpz"></path>
                </g>
            </g>
            <g id="编组" transform="translate(37.252726, 125.699381)" fill="#FFFFFF">
                <g id="n6vpA-link">
                    <path d="M5.88501649,1.03530581 C5.84387851,1.49239447 5.91472725,1.58152676 5.88501649,1.93805592 C5.22680882,9.66285426 3.68184915,6.5455096 0.0365670928,5.25880503 C0.0754196288,3.84868651 0.105130392,2.20545278 0.00457088659,0.0479943092 C1.55867233,1.45582738 4.0223802,1.65694639 5.88501649,1.03530581 L5.88501649,1.03530581 Z" id="n6vpA"></path>
                </g>
            </g>
            <g id="编组" transform="translate(35.881460, 126.842103)" fill="#777777">
                <g id="n6vpB-link">
                    <path d="M1.42154573,0.139412041 C1.59981031,0.685632989 2.29001418,0.0777050721 3.2727548,0.319962062 C4.70115686,0.671920329 6.83347546,2.2854433 7.24028437,0.182835464 C7.24028437,0.182835464 7.36141286,0.713058309 7.4848268,1.50382169 C7.4848268,1.50382169 7.74079645,2.86594589 8.56127059,3.4098814 C9.38174474,3.9538169 10.1245138,7.22200082 9.23319092,7.5693882 C7.37741096,8.26416296 7.21742993,9.43659538 4.6714461,9.36117575 C3.34327069,9.53269769 1.9948377,9.28076626 0.8181887,8.64126111 C-0.84561402,7.74993822 1.39183497,0.0502797525 1.42154573,0.139412041 L1.42154573,0.139412041 Z" id="n6vpB"></path>
                </g>
            </g>
            <g id="编组" transform="translate(36.795637, 126.842103)" fill="#333333">
                <g id="n6vpC-link">
                    <path d="M7.64480783,3.41216684 C6.82661913,2.86823134 6.57064948,1.50610713 6.57064948,1.50610713 C6.44266466,0.713058309 6.3238216,0.185120907 6.3238216,0.185120907 C5.91472725,2.28772874 3.78240866,0.671920329 2.35629204,0.322247505 C1.37583687,0.0799905154 0.683347546,0.681062103 0.505082969,0.141697484 C0.345101938,0.598786144 0.212546227,1.06730202 0.105130392,1.54038878 C1.08330012,1.73922235 2.25344709,1.64551917 3.03963959,1.76893311 C4.59831191,2.00661922 5.27937402,2.65797055 5.89644371,4.11379794 C6.10670449,4.60973913 6.24840198,5.20395439 6.53179694,5.65418672 C6.76948305,6.04271208 7.14429575,6.27125641 7.3477002,6.6826362 C7.53053567,7.05059257 7.6379515,7.45283059 7.65852049,7.86421039 C7.86878127,7.74993822 8.08589839,7.6539496 8.30758639,7.5693882 C9.20805105,7.24485525 8.46299653,3.95153146 7.64480783,3.4098814 L7.64480783,3.41216684 Z" id="n6vpC"></path>
                </g>
            </g>
            <g id="编组" transform="translate(36.110004, 133.012800)" fill="#333333">
                <g id="n6vpD-link">
                    <path d="M3.60185864,1.55410144 C2.38794097,1.6073181 1.17307057,1.47318901 -5.19649643e-14,1.15643431 C0.061706969,1.79635843 0.239971546,2.28087241 0.582788041,2.46599332 C1.75943704,3.10549847 3.10787003,3.3574299 4.43604544,3.18590796 C6.98202927,3.26132759 7.1420103,2.09803695 8.99779026,1.39183497 C9.32232321,1.27070647 9.42973905,0.751910845 9.39317195,0.121128495 C7.53053567,0.822759587 5.59476519,1.44211472 3.60185864,1.55638689 L3.60185864,1.55410144 Z" id="n6vpD"></path>
                </g>
            </g>
            <g id="编组" transform="translate(15.998103, 64.220957)" fill="#2C405F">
                <g id="n6vpE-link">
                    <path d="M3.38702697,2.77909905 C1.50839258,4.98226639 1.17014697,3.16762441 0.365670928,5.55591266 C-0.438805113,7.94648635 0.493655752,28.4263437 1.64551917,30.8466282 C2.7973826,33.2691981 2.18945468,37.1544517 1.64551917,38.7839728 C1.10158367,40.4134938 1.28899002,43.4462771 1.72322425,47.6926307 C2.15974392,51.9412698 0.0502797525,56.066495 2.14374581,59.1015637 C1.01245138,60.6785195 0.399952577,60.4454043 3.29332379,62.392602 C6.18440956,64.3352288 9.9393929,62.6622843 9.00921748,60.5482493 C8.0813275,58.4319288 10.1679372,52.519487 10.7827215,48.4171163 C11.3997912,44.3147455 10.279924,41.3231003 10.7827215,39.9518343 C11.285519,38.5828537 10.1130866,37.0058979 12.2225508,35.3626641 C13.3789851,34.6838875 12.4099571,28.8262963 12.7504882,27.5830152 C13.0933047,26.339734 13.5892458,15.2164815 13.5892458,15.2164815 C14.4577143,15.3536081 15.3398954,15.3993169 16.2175056,15.3444663 C15.9683923,27.8984063 18.8000566,34.2473678 18.5235179,36.9487618 C18.2492647,39.6501558 17.4836412,44.9843804 19.1908674,49.3655752 C20.8980935,53.74677 20.7861068,56.6789938 20.8638119,58.4296433 C20.9438024,60.1802929 19.1085914,61.2978747 20.5209954,61.5515589 C21.9356848,61.8029576 19.3097104,63.0713787 21.7437075,63.5284673 C24.1777046,63.985556 28.6845988,63.2542141 29.3862299,61.3115873 C30.0901465,59.3689605 26.8105353,61.9675096 27.8412702,59.7232042 C28.8697197,57.4766135 28.1726595,57.3669122 27.8138449,55.7168221 C27.4527449,54.0667321 27.3110474,43.5171258 27.6652911,40.9597148 C28.0218203,38.4023037 26.3511612,35.1501179 27.2539113,34.0668178 C28.154376,32.9812322 27.407036,31.6145371 27.9075481,28.8720052 C28.4103456,26.1271878 28.474338,13.5001136 28.917714,10.1062303 C29.3633755,6.71006152 27.3956088,0.061706969 27.3956088,0.061706969 L3.38702697,2.77909905 Z" id="n6vpE"></path>
                </g>
            </g>
            <g id="编组" transform="translate(15.998103, 64.220957)" fill="#1F304A">
                <g id="n6vpF-link">
                    <path d="M5.68161204,8.43328577 C9.58972008,8.28930284 13.5366807,8.99093393 17.451645,9.09834977 C19.6548124,9.15777129 21.8625506,9.18519661 24.0702888,9.18062573 C25.4072731,9.18062573 26.8288189,9.18062573 28.0949545,9.67885236 C28.376064,9.79312453 28.6434608,9.93025113 28.8994305,10.094803 C29.3359502,6.69634886 27.3773253,0.0594215257 27.3773253,0.0594215257 L3.38931241,2.78138449 C1.51067802,4.98455183 1.17243241,3.16990985 0.367956371,5.5581981 C0.166837361,6.15926969 0.139412041,7.89849204 0.23540066,10.2045043 C1.83521097,9.08920799 3.7321289,8.4721383 5.68161204,8.43100032 L5.68161204,8.43328577 Z" id="n6vpF"></path>
                </g>
            </g>
            <path d="M32.4692929,87.6558922 C32.8418202,85.4093015 33.4931715,82.4313689 35.1912559,80.8475566 C36.7544991,79.400871 39.0696532,79.8168217 40.991711,79.3208805 C40.0615356,77.9838962 37.0904593,79.0009185 35.7786148,78.8957881 C34.1445229,78.7678032 32.7618297,78.3518526 31.6945276,77.1702784 C29.6376287,79.4557217 26.7305448,78.0798848 24.0497198,77.6045126 C23.7526122,77.549662 22.7401608,77.2159872 22.4659076,77.4216771 C21.8145563,77.910762 23.597202,78.4661247 23.8828825,78.6078222 C25.0886638,79.2181459 26.0281045,80.2503105 26.5225695,81.5080498 C27.0988894,82.9483923 27.3832206,84.4889079 27.3590417,86.0400838 C27.3773253,88.1998277 27.3818961,90.1607381 27.8389848,92.3021985 C28.3189279,94.5213639 28.9679938,97.0330661 28.4400564,99.2933695 C29.1759691,97.9083909 28.3989184,92.9558352 28.7143096,91.8108281 C29.0525552,90.5538343 29.5507818,79.4442945 29.5507818,79.4442945 C30.4192503,79.5814211 31.3014314,79.6271299 32.1790416,79.5722793 C32.1264764,82.2691024 32.2247505,84.9682109 32.4692929,87.6558922 L32.4692929,87.6558922 Z" id="n6vpG" fill="#1F304A"></path>
            <g id="编组" transform="translate(17.140825, 117.243241)" fill="#1F304A">
                <g id="n6vpH-link">
                    <path d="M7.34084387,7.53510655 C6.92489319,8.35100981 5.4050734,8.92694152 4.53660495,8.89723076 C3.44873394,8.84466556 2.54369839,8.00133698 1.98833567,7.10315777 C1.93805592,7.01859637 2.04318631,6.89746787 2.12774771,6.96146028 C2.91622565,7.53282111 3.6155713,7.46425781 4.53660495,7.54424832 C4.99140816,7.58081542 5.49649113,7.73394012 5.94443802,7.64252239 C6.34210515,7.55796098 6.67806532,7.29513501 7.07116156,7.19229006 C7.1629628,7.16894606 7.25994879,7.20124733 7.31942087,7.27497305 C7.37889295,7.34869876 7.38994067,7.45032358 7.3477002,7.53510655 L7.34084387,7.53510655 Z M8.65268832,0.0205689897 C8.40281969,0.449906224 8.16728903,0.887429209 7.94648635,1.33241344 C7.56278202,2.21105104 7.09917452,3.0525828 6.56150771,3.84640107 C4.92741575,6.04956841 1.60209575,5.54448544 0.102844948,3.57214787 C0.185120907,4.46804165 0.491370309,5.32736833 0.994167834,6.0701374 C-0.137126598,7.64709327 -0.749625402,7.4162635 2.14146037,9.36117575 C5.03254614,11.3038025 8.78752948,9.63085806 7.8596395,7.51682301 C7.24256981,6.12955892 7.93505913,3.09906111 8.65268832,0.0205689897 L8.65268832,0.0205689897 Z" id="n6vpH"></path>
                </g>
            </g>
            <g id="编组" transform="translate(35.424371, 114.500709)" fill="#1F304A">
                <g id="n6vpI-link">
                    <path d="M7.37055463,11.2740918 C5.79359876,11.4957798 4.03609286,12.615647 2.47284965,11.8180273 C2.39814496,11.7719357 2.36250368,11.6823105 2.38515394,11.5975037 C2.40780421,11.5126969 2.48338601,11.4527773 2.57112371,11.4500709 C3.45559027,11.548345 4.35148404,11.5300614 5.23137971,11.3952203 C5.92991338,11.2423672 6.63882147,11.1415312 7.35227109,11.0935418 C7.44368882,11.0958272 7.46654325,11.2603791 7.37055463,11.2740918 L7.37055463,11.2740918 Z M8.39214779,9.44116626 C8.93608329,8.22988131 8.99779026,7.64023694 8.87209088,7.09630144 C8.16179445,7.40526578 7.39551298,7.56474568 6.62092923,7.56481731 C5.97186334,7.54196288 5.75931711,7.47339958 5.20395439,7.89163571 C4.92970119,8.10418193 4.71029864,8.41043133 4.35834037,8.52013261 C3.90079932,8.6473325 3.41113424,8.4954291 3.10591744,8.13160725 C2.03861542,7.0254527 2.1323186,4.86342334 1.71865336,3.45559027 C1.33784207,2.235996 0.787782095,1.07586952 0.084561402,0.00914177319 C1.44668561,3.88068272 1.34841155,6.52265517 1.41926029,8.14531991 C1.49467992,9.89596948 -0.338245608,11.0181221 1.07644379,11.2695209 C2.48884775,11.5232051 -0.134841155,12.7893407 2.29915596,13.2464294 C4.73315307,13.703518 9.23776181,12.9744616 9.94167834,11.0295494 C10.6433094,9.08692255 7.36141286,11.6923279 8.39214779,9.44116626 L8.39214779,9.44116626 Z" id="n6vpI"></path>
                </g>
            </g>
            <g id="编组" transform="translate(15.769559, 24.911332)" fill="#BED2EF">
                <g id="n6vpJ-link">
                    <path d="M26.7488284,30.9494731 C26.7488284,26.2848834 29.0342717,13.543537 29.1096913,8.2184541 C29.1851109,2.89565666 24.607368,0.324532948 23.1446843,0.130270268 C22.0156753,0.738198185 18.4663818,1.23642482 14.7045422,1.29584635 C10.9335607,1.23185394 7.38426729,0.738198185 6.26440008,0.130270268 C4.80171637,0.315391175 0.226258886,2.90022754 0.301678515,8.22073954 C0.379383587,13.5389661 2.57798004,24.3628256 2.57798004,29.0274153 C2.57798004,31.2328681 0.0388525361,43.5079841 0.127984825,45.3271969 C2.66482688,47.0481357 5.61304874,47.0641338 7.34998564,47.0572775 C13.9846275,47.0298522 12.332252,46.9498617 18.3109717,47.1624079 C20.3884397,47.2355421 24.0588616,47.9463149 25.7980839,46.7875952 C26.5842764,46.2619432 29.1188331,45.9694065 29.1668274,44.8678228 C29.201109,43.0463245 26.7488284,33.1549259 26.7488284,30.9494731 L26.7488284,30.9494731 Z" id="n6vpJ"></path>
                </g>
            </g>
            <g id="编组" transform="translate(15.998103, 31.996206)" fill="#95B6E8">
                <g id="n6vpK-link">
                    <path d="M2.90251299,10.7278708 C2.90251299,8.54984338 2.74710284,6.34896148 2.68539587,4.16407769 C2.66254144,3.26818392 2.61911802,2.25801798 2.17574202,1.46039827 C1.67497276,0.760456235 0.933662981,0.269775887 0.0937031752,0.0822759587 C0.0557427465,0.432904237 0.0389523798,0.785501938 0.0434234227,1.13815076 C0.109701278,5.70903736 1.73693691,14.327444 2.19859645,19.627387 C2.28763968,19.205591 2.36309829,18.781041 2.42485534,18.3543951 C2.7714832,15.827453 2.93037569,13.278298 2.90022754,10.7278708 L2.90251299,10.7278708 Z" id="n6vpK"></path>
                </g>
            </g>
            <g id="编组" transform="translate(41.595068, 31.767662)" fill="#95B6E8">
                <g id="n6vpL-link">
                    <path d="M1.22728305,2.7608155 C0.0274253196,5.05082969 0.084561402,7.44597426 0.281109526,9.96910366 C0.39538169,11.4774962 0.578217154,12.9813179 0.715343752,14.4897105 C0.84561402,15.9981031 0.829615917,17.5293501 1.13357988,19.0103173 C1.16786152,19.1885819 1.2089995,19.3691319 1.25242293,19.5542529 C1.89006161,13.7400851 3.22018961,5.41421517 3.27732569,1.37126598 C3.28418202,0.975884288 3.26132759,0.580502598 3.21333328,0.189691794 C2.39971546,0.918748206 1.72779513,1.7895021 1.22728305,2.7608155 L1.22728305,2.7608155 Z" id="n6vpL"></path>
                </g>
            </g>
            <g id="编组" transform="translate(0.457089, 24.911332)" fill="#BED2EF">
                <g id="n6vpM-link">
                    <path d="M20.3175909,2.38828825 C21.5974392,2.30601229 22.1299474,0.548506391 21.5471594,0.130270268 C20.6512656,-0.509653855 16.0346702,1.53353245 14.9490846,2.71282119 C13.863499,3.89210994 12.6247888,6.85861534 11.347226,9.1212042 C10.0696632,11.3837931 8.05161674,13.5869604 6.05642474,15.3033283 C4.06123274,17.0174108 -0.361100041,21.5357322 0.105130392,24.2142717 C0.571360824,26.8928113 1.1930014,30.7026453 5.85987661,28.1635178 C10.5267518,25.6266757 17.2345279,16.2106493 18.4572401,13.0110287 C19.6776668,9.81140808 20.3175909,2.38828825 20.3175909,2.38828825 Z" id="n6vpM"></path>
                </g>
            </g>
            <path d="M17.0105545,38.5440012 C15.8038404,38.9508101 14.8096726,39.7438589 13.9023516,40.6306109 C11.9962919,42.4909618 10.5496063,44.7581215 8.84238012,46.7921661 C7.28486822,48.6139953 5.44722393,50.1762244 3.39845418,51.4201887 C2.77902367,51.8074369 2.14875049,52.1770651 1.50839258,52.5286287 C2.2488762,53.890753 3.59500231,54.5718151 6.32153616,53.0908478 C10.8604265,50.6248545 17.3145184,41.6682022 18.8000566,38.2263246 C18.1944141,38.2628917 17.5933425,38.3703075 17.0105545,38.5462867 L17.0105545,38.5440012 Z" id="n6vpN" fill="#95B6E8"></path>
            <path d="M1.73465146,48.1999991 C2.98707439,46.7670262 4.71258408,46.8995819 6.03814119,47.6194965 C7.02773814,49.3198664 8.00590787,51.0248071 9.03207191,52.7046079 C10.4581885,55.0403309 12.1951254,57.1795059 13.5366807,59.5632232 C13.9503459,60.3014214 14.3525839,61.0236215 14.8005308,61.7183962 C15.1204929,64.387794 11.7540349,67.2148874 11.1552487,62.5114451 C10.780436,59.5860777 5.07139868,56.8801128 3.43502128,54.7500796 C0.132555711,51.3950489 0.0022854433,50.1883348 1.73465146,48.2022846 L1.73465146,48.1999991 Z" id="n6vpO" fill="#F3E8E0"></path>
            <g id="编组" transform="translate(10.055951, 59.421526)" fill="#F3DED1">
                <g id="n6vpP-link">
                    <path d="M6.80147925,4.78114738 C6.75577039,4.68515876 6.17526779,3.67499282 6.10670449,3.62242763 C5.42388832,2.27834814 4.51821793,1.05971145 3.42816495,0.0182835464 C3.36209855,0.395124904 3.26501806,0.765865337 3.13791365,1.12672355 C2.89565666,1.81235653 2.41114268,2.69682309 1.73922235,3.13791365 C2.19895854,3.45693352 2.55433026,3.904527 2.7608155,4.42461822 C2.95602134,4.81366295 3.00313254,5.26040714 2.89337121,5.68161204 C2.7448174,6.0701374 2.34943571,6.17983868 1.98147934,6.22554754 C1.66151728,6.25982919 1.33926977,6.28725451 1.01473682,6.30553806 C0.797619711,6.30553806 0.363385484,6.24611653 0.249113319,6.49522985 C0.208387382,6.59799606 0.208387382,6.7124257 0.249113319,6.81519191 C0.308534845,6.97060206 0.40223802,7.10772866 0.523366515,7.21742993 C0.745054515,7.42311983 2.25344709,7.1785774 3.15162631,6.94317674 L3.06477946,7.03002358 C2.82453652,7.21770433 2.54600885,7.35033655 2.2488762,7.41854894 C1.91614419,7.54437756 1.57837458,7.65645912 1.23642482,7.75450911 C1.00330961,7.82307241 0.418236123,7.94648635 0.580502598,8.3190136 C0.614784247,8.403575 0.740483628,8.67097187 0.82504503,8.71210985 C1.38726408,8.98636305 2.02261732,8.69611175 2.61683258,8.43785665 C3.15619719,8.24130853 3.65213839,7.93963002 4.07265996,7.54653377 L4.0909435,7.52825022 L4.11379794,7.50311035 C4.51603596,7.07801789 4.48861064,7.3317021 4.3651967,7.73165468 C4.23949732,8.13160725 4.03380742,8.40128956 3.1721953,9.15548585 C2.30829773,9.90968214 1.81007109,10.1245138 2.08203884,10.5953151 C2.28087241,10.9495588 2.85223324,11.1941013 3.94467513,10.2502132 C4.75335721,9.55892354 5.38759612,8.68664929 5.7958842,7.70422936 C5.81873864,7.63566606 5.85987661,7.57167364 5.91244181,7.52139389 C5.95357979,7.74765278 5.96500701,7.97619711 5.95129435,8.20245599 C5.8420466,8.72154248 5.67094026,9.225654 5.44164049,9.70399224 C5.16967274,10.1610809 4.85199612,10.5884588 4.57545748,11.0524038 C4.50393066,11.1646857 4.50139539,11.3075902 4.56889447,11.4223386 C4.63639354,11.537087 4.76252896,11.6043029 4.89541954,11.5963393 C5.19709806,11.5506304 5.50791835,11.2352393 5.7113228,11.0249785 C5.95716643,10.7705436 6.1833149,10.4977902 6.38781402,10.2090752 C6.79005204,9.6651397 7.25399703,9.10292065 7.45740148,8.44471298 C7.83907051,7.18543373 7.30656222,5.91472725 6.79919381,4.78114738 L6.80147925,4.78114738 Z" id="n6vpP"></path>
                </g>
            </g>
            <g id="编组" transform="translate(11.655761, 58.964437)" fill="#F3E8E0">
                <g id="n6vpQ-link">
                    <path d="M5.1993835,5.23366515 C5.15596008,5.14224742 4.57317204,4.12979604 4.50689418,4.07723084 C3.75148429,2.62391944 2.77458487,1.29697082 1.61123752,0.143982928 C1.54267423,0.537079175 1.66151728,1.23413938 1.53810334,1.58152676 C1.52210524,1.62723563 0.21483167,2.10260783 0.198833567,2.1483167 C0.767908948,2.64654334 1.66608816,3.6155713 2.17802746,4.1595068 C3.13791365,5.18109996 5.05082969,5.79359876 5.09425311,7.23571348 C5.13310565,8.48585096 5.01426259,10.0308106 4.37662391,11.1758177 C4.51375051,11.0112658 4.65087711,10.842143 4.78114738,10.6684493 C5.1833854,10.1222284 5.64733039,9.56229476 5.85073484,8.90408709 C6.2392602,7.64023694 5.70903736,6.37181591 5.1993835,5.23595059 L5.1993835,5.23366515 Z" id="n6vpQ"></path>
                </g>
            </g>
            <path d="M16.7020196,64.8220282 C16.3134943,67.1143279 15.8312657,69.6077465 15.8564056,70.2385289 C16.6462943,70.7694907 17.5136007,71.1750047 18.4275293,71.440672 C18.6458947,70.8824941 18.7612703,70.2893554 18.7680604,69.6900225 C18.7977711,67.7016868 18.0664293,65.7087802 16.7020196,64.8220282 L16.7020196,64.8220282 Z" id="n6vpR" fill="#95B6E8"></path>
            <g id="编组" transform="translate(11.198672, 61.478425)" fill="#F3E8E0">
                <g id="n6vpS-link">
                    <path d="M5.10568033,2.49341864 C4.35623354,1.9415566 3.65650554,1.32518418 3.01449971,0.65135134 C2.87280222,0.507368412 2.74024651,0.361100041 2.60083447,0.217117113 C2.19631101,-0.0342816495 1.9106306,0.345101938 1.64780462,0.0342816495 L1.62723563,0.0137126598 C1.42840206,0.0548506391 1.22499761,0.0685632989 1.0238786,0.0548506391 C-0.0822759587,-0.0274253196 -0.118843051,0.991882391 0.427377897,2.17345658 C0.619355134,2.58940726 0.669634886,3.26132759 1.16786152,3.48530103 C2.08203884,3.88753905 3.61785674,3.71155992 4.16179224,4.34005682 C4.43874404,4.69561424 4.87810086,4.88510656 5.32677528,4.84250795 C5.7754497,4.79990935 6.17129579,4.53112017 6.3763868,4.12979604 C6.56150771,3.70241814 6.81519191,3.13334276 5.10568033,2.49341864 L5.10568033,2.49341864 Z" id="n6vpS"></path>
                </g>
            </g>
            <g id="编组" transform="translate(13.941204, 61.249880)" fill="#F3DED1">
                <g id="n6vpT-link">
                    <path d="M3.11277377,3.08991934 C2.71510664,2.69910853 2.18716924,2.42714078 1.75293501,2.08432429 C1.37100696,1.77902581 1.00124087,1.45881601 0.64449501,1.1244381 C0.735912742,0.964457072 0.603357031,0.710772866 0.530222845,0.564504494 C0.436437154,0.360967584 0.288614016,0.18705801 0.102844948,0.061706969 C0.0319962062,0.022854433 -0.0319962062,0.114272165 0.0182835464,0.175979134 C0.160563736,0.323965418 0.28065403,0.491783907 0.374812701,0.674205773 C0.404523464,0.765623505 0.427377897,0.857041237 0.443376,0.948458968 L0.340531051,0.85247035 C0.318909251,0.839232977 0.29103271,0.842538317 0.27310605,0.860464977 C0.25517939,0.878391638 0.25187405,0.906268178 0.265111423,0.927889979 C0.671693385,1.41328429 1.12825146,1.85452162 1.62723563,2.24430532 C2.05004264,2.63283068 2.54141295,2.93908008 3.07849212,3.14934086 C3.08910675,3.15546469 3.1021821,3.1554605 3.11279281,3.14932987 C3.12340352,3.14319924 3.12993364,3.13187356 3.12993364,3.11961911 C3.12993364,3.10736465 3.1233884,3.09604316 3.11277377,3.08991934 L3.11277377,3.08991934 Z" id="n6vpT"></path>
                </g>
            </g>
            <g id="编组" transform="translate(15.998103, 64.449501)" fill="#F3DED1">
                <g id="n6vpU-link">
                    <path d="M1.14272165,0.310820288 C0.895893773,0.18740635 0.571360824,0.0365670928 0.324532948,0.260540536 C0.20111901,0.370241814 0.0822759587,0.660493113 0.297107629,0.740483628 C0.319962062,0.745054515 0.338245608,0.733627298 0.345101938,0.713058309 C0.367956371,0.596500701 0.372527257,0.482228536 0.484513979,0.411379794 C0.546220948,0.372527257 0.621640577,0.358814598 0.690203876,0.370241814 C0.559933608,0.431948783 0.457088659,0.539364618 0.399952577,0.671920329 C0.377098144,0.735912742 0.463944989,0.770194391 0.502797525,0.731341855 C0.648646912,0.569112522 0.861100725,0.483119312 1.07872924,0.498226639 C1.19071596,0.511939299 1.22728305,0.354243711 1.14043621,0.310820288 L1.14272165,0.310820288 Z" id="n6vpU"></path>
                </g>
            </g>
            <g id="编组" transform="translate(58.050260, 49.137031)" fill="#95B6E8">
                <g id="n6vpV-link">
                    <path d="M2.21688,0.678776659 C2.05689897,0.406808907 1.78721666,0.0914177319 1.45354194,0.107415835 C1.40875686,0.10788648 1.36674115,0.129171018 1.33986862,0.165001056 C1.3129961,0.200831095 1.30432734,0.247125846 1.31641534,0.290251299 C1.40554763,0.621640577 1.80321476,0.989596948 1.47639637,1.33926977 C1.22271216,1.61123752 0.65820767,1.22956849 0.363385484,1.23185394 C0.261962723,1.23489463 0.169490836,1.29067878 0.119501041,1.37897851 C0.0695112452,1.46727824 0.0692617603,1.57527296 0.118843051,1.66380272 C0.468515876,2.43628256 1.7049407,2.47970598 2.1643148,1.81007109 C2.39285913,1.47182548 2.41114268,1.03759126 2.21688,0.678776659 L2.21688,0.678776659 Z" id="n6vpV"></path>
                </g>
            </g>
            <g id="编组" transform="translate(37.938359, 24.911332)" fill="#BED2EF">
                <g id="n6vpW-link">
                    <path d="M1.67980082,2.38828825 C0.40223802,2.30601229 -0.130270268,0.548506391 0.452517773,0.130270268 C1.34841155,-0.509653855 5.96272156,1.53353245 7.05059257,2.71282119 C8.13617814,3.89210994 9.37488841,6.85861534 10.6524512,9.1212042 C11.9277286,11.3837931 13.945775,13.5869604 15.940967,15.3033283 C17.9384444,17.0174108 22.3584918,21.5357322 21.8945468,24.2142717 C21.4283164,26.8928113 20.8043903,30.7026453 16.1375151,28.1635178 C11.4706399,25.6266757 4.76514928,16.2106493 3.54472255,13.0110287 C2.31972495,9.81140808 1.67980082,2.38828825 1.67980082,2.38828825 Z" id="n6vpW"></path>
                </g>
            </g>
            <path d="M55.7031095,53.767339 C56.0367842,52.9788611 56.0367842,52.117249 55.3717202,51.0430906 C54.2084296,49.1827398 52.2749445,47.8183301 50.6454235,46.4150679 C49.0762871,45.1185649 47.6874018,43.6182306 46.5156274,41.9538826 C45.425471,40.3814976 43.6176853,37.5384062 41.5836408,38.1783303 C43.0394682,41.595068 49.5209854,50.5997146 54.0758739,53.0725643 C54.589903,53.3656796 55.1358912,53.5987981 55.7031095,53.767339 Z" id="n6vpX" fill="#95B6E8"></path>
            <g id="编组" transform="translate(45.480322, 47.080132)" fill="#F3E8E0">
                <g id="n6vpY-link">
                    <path d="M13.1847224,1.11986722 C11.930014,-0.313105732 10.2045043,-0.18055002 8.87894721,0.539364618 C7.89163571,2.23973443 6.91118053,3.94467513 5.88501649,5.62447595 C4.45889987,7.960199 2.72196297,10.0993739 1.38269319,12.4830913 C0.966742515,13.2212895 0.564504494,13.9434896 0.116557608,14.6382643 C-0.203404453,17.3076621 3.16305352,20.1347555 3.76183967,15.4313131 C4.13665237,12.5059457 9.84568973,9.79998086 11.4820671,7.66994771 C14.7822472,4.31491695 14.914803,3.10820288 13.1847224,1.12215266 L13.1847224,1.11986722 Z" id="n6vpY"></path>
                </g>
            </g>
            <path d="M43.5422657,64.2026731 C43.5856891,64.1066845 44.1684772,63.0965186 44.2370405,63.0439534 C44.9184772,61.7002145 45.8225863,60.481599 46.9110091,59.4398093 C46.9795724,59.8169074 47.075561,60.1871492 47.2012604,60.5482493 C47.4435174,61.2338823 47.9280314,62.1183488 48.5999517,62.5594394 C48.1392262,62.8765741 47.7822782,63.3225604 47.5737877,63.8415731 C47.420663,64.2209567 47.2858218,64.7031852 47.441232,65.0985669 C47.5966421,65.4985195 47.9851675,65.599079 48.3531238,65.6470733 C48.6730859,65.6790695 48.9953334,65.7064948 49.3198664,65.7247783 C49.5369835,65.7247783 49.9712177,65.6630714 50.0854899,65.9144701 C50.1243424,66.0173151 50.1243424,66.1315873 50.0854899,66.2344322 C50.027423,66.3884459 49.9333942,66.5263547 49.8112367,66.6366702 C49.5895487,66.8423601 48.0811561,66.5978177 47.1829769,66.362417 L47.2698237,66.4469784 C47.5100667,66.6346592 47.7885943,66.7672914 48.085727,66.8355038 C48.4171163,66.9634886 48.7553619,67.0754753 49.0981784,67.171464 C49.3312936,67.2400273 49.9163671,67.3657266 49.7541006,67.7382539 C49.7198189,67.8228153 49.5941196,68.0902122 49.5095582,68.1313501 C48.9473391,68.4033179 48.3119859,68.115352 47.7177706,67.8570969 C47.1779277,67.6600121 46.682947,67.3569627 46.2619432,66.9657741 L46.2436597,66.9474905 L46.2208052,66.9223506 C45.8185672,66.4972582 45.8459925,66.7509424 45.9694065,67.150895 C46.0951059,67.5508475 46.3007958,67.8205299 47.1624079,68.5747261 C48.0263055,69.3289224 48.5245321,69.5437541 48.2525643,70.0145554 C48.0537308,70.3687991 47.4823699,70.6133416 46.3899281,69.6694535 C45.581246,68.9781638 44.9470071,68.1058896 44.538719,67.1234696 C44.5158645,67.0549063 44.4747266,66.9909139 44.4221614,66.9406342 C44.3810234,67.1646076 44.3695962,67.393152 44.3833088,67.6216963 C44.4927744,68.139989 44.6638757,68.6433184 44.8929627,69.1209471 C45.1649304,69.5780357 45.4826071,70.0076991 45.7591457,70.4693586 C45.8306725,70.5816406 45.8332078,70.724545 45.7657087,70.8392935 C45.6982096,70.9540419 45.5720742,71.0212577 45.4391836,71.0132941 C45.1375051,70.9675853 44.8266848,70.6544795 44.6232804,70.4442188 C44.3774368,70.1897839 44.1512883,69.9170305 43.9467892,69.6283155 C43.5445511,69.08438 43.0806062,68.5221609 42.8772017,67.8639533 C42.4932472,66.6069595 43.0303264,65.336253 43.5399803,64.2026731 L43.5422657,64.2026731 Z" id="n6vpZ" fill="#F3DED1"></path>
            <g id="编组-13" transform="translate(42.737790, 58.964437)">
                <g id="编组" fill="#F3E8E0">
                    <g id="n6vpaa-link">
                        <path d="M0.802190597,5.23366515 C0.847899463,5.14224742 1.42840206,4.12979604 1.49696536,4.07723084 C2.25167858,2.62407563 3.22780042,1.29713591 4.39033657,0.143982928 C4.45889987,0.537079175 4.34234227,1.23413938 4.4657562,1.58152676 C4.48175431,1.62723563 5.78674243,2.10260783 5.80502598,2.1483167 C5.23366515,2.64654334 4.33777138,3.6155713 3.82583208,4.1595068 C2.86366045,5.18109996 0.953029855,5.79359876 0.909606432,7.23571348 C0.870753896,8.48585096 0.987311504,10.0308106 1.62723563,11.1758177 C1.48782359,11.0112658 1.35298243,10.842143 1.22271216,10.6684493 C0.8181887,10.1222284 0.354243711,9.56229476 0.150839258,8.90408709 C-0.246827876,7.64023694 0.290251299,6.37181591 0.802190597,5.23595059 L0.802190597,5.23366515 Z" id="n6vpaa"></path>
                    </g>
                </g>
                <path d="M0.603357031,5.37536264 C1.00102416,4.98455183 1.53124701,4.71258408 1.96548124,4.36976758 C2.34740929,4.06446911 2.71717537,3.74425931 3.07392124,3.4098814 C2.9825035,3.24990037 3.11505921,2.99621616 3.1881934,2.84994779 C3.28197909,2.64641088 3.42980223,2.47250131 3.6155713,2.34715027 C3.68642004,2.30829773 3.74812701,2.39971546 3.7001327,2.46142243 C3.55785251,2.60940872 3.43776221,2.7772272 3.34360354,2.95964907 C3.31389278,3.0510668 3.28875291,3.14248453 3.2727548,3.23390227 L3.37559975,3.13791365 C3.39718655,3.12185449 3.42723455,3.12382344 3.44654115,3.1425622 C3.46584776,3.16130097 3.46871259,3.19127682 3.45330482,3.21333328 C3.04671045,3.69871603 2.59015366,4.13995213 2.09118062,4.52974862 C1.66608816,4.91827398 1.17471785,5.22452338 0.639924123,5.43478416 C0.623515322,5.44488189 0.602027538,5.43976575 0.591929814,5.42335694 C0.58183209,5.40694814 0.586948229,5.38546036 0.603357031,5.37536264 L0.603357031,5.37536264 Z" id="n6vpad" fill="#F3DED1" fill-rule="nonzero"></path>
            </g>
            <path d="M42.4223985,69.2695009 C42.5001036,69.9185668 42.6326593,70.5607764 42.8200656,71.1892733 C43.7890936,70.8738821 44.8632519,70.5036403 44.8975336,69.7791548 C44.9295298,69.0546692 44.5478608,66.9977703 44.0793449,64.6734744 C42.6440865,65.4733796 42.1801415,67.2400273 42.4223985,69.2695009 Z" id="n6vpab" fill="#95B6E8"></path>
            <path d="M44.0930575,63.9718433 C44.8425117,63.4199904 45.5422404,62.8036173 46.1842382,62.129776 C46.3259356,61.9857931 46.4584914,61.8395247 46.5979034,61.6955418 C47.0024269,61.4441431 47.2881073,61.8235266 47.5509332,61.5127064 L47.5715022,61.4921374 C47.7703358,61.5332753 47.9737403,61.546988 48.1748593,61.5332753 C49.2810138,61.4509994 49.3175809,62.4703071 48.77136,63.6518813 C48.5793827,64.067832 48.529103,64.7397523 48.0308763,64.9637257 C47.1189845,65.3659638 45.5808811,65.1899846 45.0369456,65.8184815 C44.7599938,66.1740389 44.320637,66.3635313 43.8719626,66.3209327 C43.4232882,66.2783341 43.0274421,66.0095449 42.8223511,65.6082207 C42.6372302,65.1808428 42.383546,64.6117675 44.0930575,63.9718433 L44.0930575,63.9718433 Z" id="n6vpac" fill="#F3E8E0"></path>
            <g id="编组" transform="translate(43.194878, 64.449501)" fill="#F3DED1" fill-rule="nonzero">
                <g id="n6vpae-link">
                    <path d="M0.0594215257,0.310820288 C0.303963959,0.18740635 0.63078235,0.0365670928 0.877610226,0.260540536 C0.998738721,0.370241814 1.11986722,0.660493113 0.905035546,0.740483628 C0.883618893,0.746425088 0.86135543,0.73428138 0.854755793,0.713058309 C0.83190136,0.596500701 0.827330474,0.482228536 0.717629195,0.411379794 C0.653636783,0.372527257 0.580502598,0.358814598 0.509653855,0.370241814 C0.639924123,0.431948783 0.742769072,0.539364618 0.799905154,0.671920329 C0.82504503,0.735912742 0.738198185,0.770194391 0.697060206,0.731341855 C0.551718805,0.569767786 0.340262386,0.483837289 0.123413938,0.498226639 C0.022854433,0.511939299 -0.0251398763,0.354243711 0.0594215257,0.310820288 L0.0594215257,0.310820288 Z" id="n6vpae"></path>
                </g>
            </g>
            <g id="编组" transform="translate(0.000000, 46.394499)" fill="#BED2EF">
                <g id="n6vpaf-link">
                    <path d="M8.88123265,0.255969649 C8.85042411,0.152467348 8.76174409,0.0766795974 8.65470546,0.0623748957 C8.54766683,0.0480701941 8.44219764,0.0979117376 8.38529146,0.189691794 C8.11332371,0.758767175 6.05413929,0.189691794 5.36393542,0.143982928 C4.13665623,0.0615170253 2.91746794,0.395706682 1.90377427,1.0924419 C1.80778565,1.1610052 1.73465146,1.25470837 1.69808437,1.36669509 C1.58838309,1.41926029 1.47868181,1.47411093 1.36898054,1.53810334 C1.31184445,1.57238499 1.26385014,1.62266474 1.22499761,1.67980082 C1.0924419,1.73465146 0.964457072,1.79864388 0.83875769,1.86949262 C0.746451428,1.92592447 0.681122184,2.01752959 0.657835232,2.12318335 C0.63454828,2.22883712 0.655314017,2.33941828 0.715343752,2.42942623 C0.708487422,2.51398763 0.724485525,2.60083447 0.761052618,2.6762541 C0.754196288,2.71967752 0.754196288,2.76310095 0.761052618,2.80652437 C0.479157685,2.97497297 0.281591081,3.25472064 0.217117113,3.57671876 C0.0662778556,4.3491986 0.555362721,4.93884297 0.975884288,5.50791835 C0.998738721,5.53762911 1.0558748,5.52163101 1.04444759,5.47820758 C0.804476041,4.80171637 0.724485525,4.04294919 1.48782359,3.64985295 C1.55638689,3.61785674 1.62495018,3.59500231 1.70036981,3.58128965 C2.72653385,3.90125171 3.76412511,4.18693212 4.79714548,4.47261253 C5.68846837,4.71715497 7.11458498,5.54677088 8.04704585,5.33193921 C8.6618301,5.19024173 8.71668074,4.67373154 8.78752948,4.12065427 C8.94979595,2.91851109 9.23319092,1.41697484 8.88123265,0.255969649 L8.88123265,0.255969649 Z" id="n6vpaf"></path>
                </g>
            </g>
            <path d="M7.41169261,48.1177232 C6.35581781,48.5908099 5.16281641,48.4308289 4.03837831,48.5473865 C2.29229963,48.7279365 -0.338245608,49.735817 0.934746309,51.8155704 L0.994167834,51.8978464 C1.01702227,51.9275572 1.07644379,51.9092736 1.06273113,51.8658502 C0.822759587,51.1916444 0.742769072,50.4328772 1.50610713,50.039781 C1.57467043,50.0077848 1.64323373,49.9849304 1.71865336,49.9712177 C2.7448174,50.2911798 3.78240866,50.5768602 4.81771447,50.8625406 C5.70903736,51.107083 7.13286853,51.9366989 8.06304395,51.7218673 C8.68011364,51.5801698 8.73496428,51.0636596 8.80581303,50.5105823 C8.9520814,49.3152955 9.23547636,47.8137592 8.8835181,46.652754 C8.57918375,47.2975225 8.05834473,47.8151265 7.41169261,48.1154377 L7.41169261,48.1177232 Z" id="n6vpag" fill="#95B6E8"></path>
            <g id="编组" transform="translate(50.965386, 46.165955)" fill="#BED2EF">
                <g id="n6vpah-link">
                    <path d="M9.08692255,3.64985295 C9.40231373,2.79509715 9.21033649,1.83521097 8.58869591,1.17014697 C7.80250342,0.283394969 5.93072536,-0.191977237 4.8245708,0.146268371 C4.72172585,0.175979134 4.63030812,0.24225699 4.56860115,0.333674721 C4.45661443,0.292536742 4.33320049,0.310820288 4.23492643,0.377098144 C4.15471727,0.197324041 3.94464301,0.115741804 3.76412511,0.19426268 C2.47284965,0.738198185 -1.28670458,3.2567567 0.598786144,4.9616974 C1.36212421,5.65190127 2.3700047,5.3890753 3.25447126,5.15367464 C4.07723084,4.93198664 4.8931341,4.70115686 5.70446647,4.46347076 C6.68720709,4.17779035 7.88249393,3.547008 8.82866746,4.24863909 C8.92237063,4.31948783 9.01835925,4.18693212 8.97493583,4.09779983 C8.9520814,4.05209097 8.92237063,4.01552387 8.8995162,3.96981501 L8.9155143,3.94467513 C8.94293962,3.98809855 8.97265039,4.02923653 8.99779026,4.07265996 C9.05721179,4.1755049 9.23547636,4.10694161 9.19205294,3.98809855 L9.08692255,3.64985295 Z" id="n6vpah"></path>
                </g>
            </g>
            <path d="M60.0523081,49.818093 C60.0797334,49.7472443 60.1025878,49.6741101 60.1208714,49.6009759 C59.0192877,48.3119859 55.9087994,48.5108194 54.5078226,48.5336739 C53.6919194,48.5336739 52.8760161,48.3416966 52.3983585,47.884608 C51.2784913,48.8787758 50.4740152,50.1426259 51.5824552,51.1299375 C52.3435078,51.8178559 53.3513883,51.5573153 54.2358549,51.3196292 C55.0586145,51.1002267 55.8745177,50.8693969 56.6858501,50.6339963 C57.6685907,50.3460304 58.8638776,49.715248 59.8100511,50.4168791 C59.9060397,50.4854424 59.9997429,50.3551722 59.9563195,50.2660399 C59.933465,50.220331 59.9060397,50.1814785 59.8808998,50.1380551 L59.8968979,50.1129152 C59.9243233,50.1563386 59.954034,50.1951911 59.9791739,50.2409 C60.0385954,50.343745 60.2191454,50.2751817 60.175722,50.1563386 L60.0523081,49.818093 Z" id="n6vpai" fill="#95B6E8"></path>
            <g id="n6vpak-link" transform="translate(0.457089, 46.394499)" fill="#95B6E8">
                <path d="M5.24509237,0.0594215257 C3.80890988,-0.00431014972 2.38408441,0.34040569 1.13586532,1.05358936 C0.83875769,1.22042672 0.489084866,1.41926029 0.150839258,1.65009006 C0.0677904588,2.00753496 0.0538272783,2.37755924 0.109701278,2.74024651 L0.146268371,2.96421996 C0.562945176,2.51131649 1.01875228,2.09604256 1.50839258,1.72322425 C2.65766197,1.00390125 3.93114918,0.505512771 5.26337591,0.253684206 C5.37536264,0.223973443 5.34565187,0.0662778556 5.24509237,0.0594215257 L5.24509237,0.0594215257 Z" id="n6vpak"></path>
            </g>
            <path d="M34.7775907,47.8708953 C34.1536646,43.8782259 33.4977424,39.8992691 32.8029676,35.9363104 C32.7869695,35.8380363 32.6429866,35.8814598 32.6589847,35.9774484 C33.5205968,41.5927826 34.3844944,47.2126876 35.1501179,52.8440199 C35.5317869,55.6391171 35.790042,58.8090269 33.856557,61.1150392 C32.9378088,62.2029102 31.57797,62.959392 30.1335699,62.655428 C28.656725,62.3762946 27.5542386,61.1357627 27.4504594,59.6363574 C27.4504594,59.5562067 27.3854845,59.4912318 27.3053338,59.4912318 C27.2251831,59.4912318 27.1602081,59.5562067 27.1602081,59.6363574 C27.0093689,61.8143849 29.1096913,63.3890553 31.1505921,63.1947926 C33.4863152,62.9708192 35.0906964,60.6968031 35.5912085,58.5393446 C36.3819719,55.1294632 35.3055281,51.2419242 34.7775907,47.8708953 L34.7775907,47.8708953 Z" id="n6vpal" fill="#95B6E8"></path>
            <path d="M20.1256137,65.7476328 C19.7014177,64.596642 18.9051373,63.6201931 17.8630248,62.9731046 C17.7205108,62.902413 17.5475945,62.9545347 17.4678879,63.0922097 C17.3881814,63.2298847 17.4290798,63.4057939 17.5613463,63.4941857 C18.5630556,64.0314205 19.3991065,64.8319116 19.9793453,65.8093397 C20.0250542,65.8824739 20.1576099,65.8321942 20.1256137,65.7476328 L20.1256137,65.7476328 Z" id="n6vpam" fill="#95B6E8"></path>
            <path d="M42.8360637,62.6897096 C42.2052814,62.1229197 41.0968414,62.9616774 40.6420382,63.4484768 C40.0118523,64.1094566 39.6564653,64.9852609 39.6478703,65.898472 C39.6478703,66.021886 39.821564,66.0173151 39.8329912,65.898472 C39.924409,65.0414308 40.388354,64.2666655 41.0991268,63.7775807 C41.3920745,63.5772052 41.7165296,63.4273379 42.059013,63.3342047 C42.3469789,63.2496433 42.6349447,63.2427869 42.8360637,62.9959591 C42.9156475,62.9093868 42.9156475,62.7762819 42.8360637,62.6897096 L42.8360637,62.6897096 Z" id="n6vpan" fill="#95B6E8"></path>
            <g id="n6vpao-link" transform="translate(54.393550, 46.165955)" fill="#95B6E8">
                <path d="M5.34108099,1.66151728 C5.22023656,1.22337753 5.05402363,0.799036685 4.84513979,0.39538169 C3.27650149,-0.0592688718 1.61596198,-0.0939455392 0.0297107629,0.294822185 C-0.0159981031,0.294822185 0.00685632989,0.367956371 0.0479943092,0.363385484 C1.91673249,0.0219194957 3.84237635,0.494184483 5.34108099,1.66151728 L5.34108099,1.66151728 Z" id="n6vpao"></path>
            </g>
            <g id="编组" transform="translate(19.426268, 21.026078)" fill="#BED2EF">
                <g id="n6vpap-link">
                    <path d="M3.85554284,1.4672546 C8.44928387,-0.40223802 14.9559409,-0.349672825 17.5316355,1.35983876 C17.376834,1.76487496 17.2508214,2.18033485 17.1545374,2.60311992 C17.1545374,2.60311992 17.291664,2.92308198 21.3368986,4.29891884 C14.430289,7.26770969 -0.461659546,4.58917014 0.132555711,4.32862961 C3.85782829,3.14476998 4.36062581,2.53227117 4.36062581,2.53227117 L3.85554284,1.4672546 Z" id="n6vpap"></path>
                </g>
            </g>
            <g id="n6vpaq-link" transform="translate(25.139876, 22.854433)" fill="#95B6E8">
                <path d="M9.87311504,1.10615456 C6.96374573,-0.159981031 3.31846367,-0.255969649 0.269682309,0.562219051 C0.238280755,0.57390606 0.219359513,0.605992723 0.22432979,0.639127902 C0.229300067,0.672263081 0.256802769,0.697386153 0.290251299,0.699345649 C1.90605971,0.687918433 3.46701748,0.559933608 5.08511134,0.738198185 C6.70091975,0.918748206 8.24359397,1.12672355 9.82512074,1.28213369 C9.90968214,1.28213369 9.95310556,1.14043621 9.8708296,1.10615456 L9.87311504,1.10615456 Z" id="n6vpaq"></path>
            </g>
            <g id="编组" transform="translate(22.168800, 128.670458)" fill="#333333">
                <g id="n6vpar-link">
                    <path d="M2.21688,0.159981031 C1.56095777,0.109701278 0.909606432,0.294822185 0.374812701,0.681062103 C0.189691794,0.802190597 0.125699381,1.04673303 0.230829773,1.24328115 C0.521081072,1.85349451 0.751910845,2.45685154 1.02616404,3.04878136 C1.08558557,3.35045987 1.16329064,3.6475675 1.25470837,3.94010424 C1.36898054,4.2966334 1.96091035,4.36748214 2.03861542,3.94010424 L2.61911802,0.690203876 C2.65102515,0.564781185 2.62438044,0.431655848 2.54665883,0.328175083 C2.46893723,0.224694317 2.34851126,0.162005546 2.21916544,0.157695588 L2.21688,0.159981031 Z" id="n6vpar"></path>
                </g>
            </g>
            <g id="编组" transform="translate(37.252726, 128.670458)" fill="#333333">
                <g id="n6vpas-link">
                    <path d="M0.0159981031,0.694774762 C0.20797534,1.78264577 0.399952577,2.86594589 0.594215257,3.94467513 C0.671920329,4.37205303 1.2615647,4.30120429 1.37812231,3.94467513 C1.47182548,3.65213839 1.54953056,3.35503076 1.60666664,3.05335225 C1.88091983,2.46142243 2.10946416,1.8580654 2.40200091,1.24785204 C2.5071313,1.05130392 2.44542433,0.806761484 2.25801798,0.685632989 C1.72550969,0.297107629 1.07187291,0.114272165 0.41595068,0.162266474 C0.286604861,0.166576433 0.166178892,0.229265204 0.0884572876,0.332745969 C0.0107356828,0.436226735 -0.0159090303,0.569352071 0.0159981031,0.694774762 Z" id="n6vpas"></path>
                </g>
            </g>
        </g>
    </g>
</svg>