<?xml version="1.0" encoding="UTF-8"?>
<svg width="32px" height="32px" viewBox="0 0 32 32" version="1.1" xmlns="http://www.w3.org/2000/svg" xmlns:xlink="http://www.w3.org/1999/xlink">
    <!-- Generator: Sketch 63.1 (92452) - https://sketch.com -->
    <title>ic_list_safephone</title>
    <desc>Created with Sketch.</desc>
    <g id="ic_list_safephone" stroke="none" stroke-width="1" fill="none" fill-rule="evenodd">
        <g id="bg"></g>
        <g id="分组" transform="translate(-0.198710, 0.000000)" fill="#47CC47">
            <circle id="Oval-3-Copy-2" cx="16.0954839" cy="15.8967742" r="15.8967742"></circle>
        </g>
        <g id="ic/wlan/ic_wlan备份-79" transform="translate(5.161290, 5.161290)" fill="#FFFFFF">
            <g id="分组" transform="translate(5.129032, 3.077419)">
                <path d="M8.94427764,0.0212235818 C9.64225155,0.0212235818 10.2080712,0.587043226 10.2080712,1.28501713 L10.2080712,13.1187204 C10.2080712,13.8166943 9.64225155,14.3825139 8.94427764,14.3825139 L1.53922848,14.3825139 C0.841254572,14.3825139 0.275434928,13.8166943 0.275434928,13.1187204 L0.275434928,1.28501713 C0.275434928,0.587043226 0.841254572,0.0212235818 1.53922848,0.0212235818 L8.94427764,0.0212235818 Z M5.91737041,13.3567075 L4.54962848,13.3567075 C4.4552056,13.3567075 4.37866073,13.4332523 4.37866073,13.5276752 C4.37866073,13.6220981 4.4552056,13.6986429 4.54962848,13.6986429 L4.54962848,13.6986429 L5.91737041,13.6986429 C6.01179329,13.6986429 6.08833815,13.6220981 6.08833815,13.5276752 C6.08833815,13.4332523 6.01179329,13.3567075 5.91737041,13.3567075 L5.91737041,13.3567075 Z M8.81470374,1.04703003 L1.65229514,1.04703003 C1.48264871,1.04703003 1.341108,1.16736494 1.30837354,1.32733422 L1.30124138,1.3980838 L1.30124138,12.3217827 C1.30124138,12.4914292 1.42157629,12.6329699 1.58154556,12.6657043 L1.65229514,12.6728365 L8.81470374,12.6728365 C8.98435018,12.6728365 9.12589089,12.5525016 9.15862534,12.3925323 L9.16575751,12.3217827 L9.16575751,1.3980838 C9.16575751,1.20420216 9.00858538,1.04703003 8.81470374,1.04703003 Z" id="形状结合"></path>
            </g>
        </g>
    </g>
</svg>