<?xml version="1.0" encoding="UTF-8"?>
<svg width="20px" height="20px" viewBox="0 0 20 20" version="1.1" xmlns="http://www.w3.org/2000/svg" xmlns:xlink="http://www.w3.org/1999/xlink">
    <!-- Generator: Sketch 61.2 (89653) - https://sketch.com -->
    <title>UIicon/20/top@1x</title>
    <desc>Created with Sketch.</desc>
    <defs>
        <filter x="-92.3%" y="-92.3%" width="284.6%" height="284.6%" filterUnits="objectBoundingBox" id="filter-1">
            <feOffset dx="0" dy="0" in="SourceAlpha" result="shadowOffsetOuter1"></feOffset>
            <feGaussianBlur stdDeviation="3" in="shadowOffsetOuter1" result="shadowBlurOuter1"></feGaussianBlur>
            <feColorMatrix values="0 0 0 0 0   0 0 0 0 0   0 0 0 0 0  0 0 0 0.16 0" type="matrix" in="shadowBlurOuter1" result="shadowMatrixOuter1"></feColorMatrix>
            <feMerge>
                <feMergeNode in="shadowMatrixOuter1"></feMergeNode>
                <feMergeNode in="SourceGraphic"></feMergeNode>
            </feMerge>
        </filter>
    </defs>
    <g id="UIicon/20/top" stroke="none" stroke-width="1" fill="none" fill-rule="evenodd">
        <rect id="矩形" fill="#F15859" x="0" y="0" width="20" height="20" rx="2.5"></rect>
        <g id="编组-2" filter="url(#filter-1)" transform="translate(3.750000, 3.750000)" fill="#FFFFFF">
            <path d="M5.91692775,7.55244755 C7.24359546,7.55244755 8.01282863,8.01398655 8.01282863,9.84116716 C8.01282863,11.6739908 7.24359546,12.129373 5.91692775,12.129373 C4.59589857,12.129373 3.82051305,11.6739863 3.82051305,9.84065334 C3.82051305,8.01398655 4.59589857,7.55244755 5.91692775,7.55244755 Z M5.9169548,8.58475434 C5.30772332,8.58475434 5.16669701,8.87295976 5.16669701,9.84116806 C5.16669701,10.79604 5.30772287,11.0780926 5.9169548,11.0780926 C6.52567245,11.0780926 6.67285111,10.7960409 6.67285111,9.84116806 C6.67285111,8.87296381 6.52567155,8.58475434 5.9169548,8.58475434 Z" id="形状结合"></path>
            <path d="M3.13487524,7.61655009 L3.13487523,7.61655009 C3.27648702,7.61655009 3.39128583,7.7313489 3.39128583,7.8729607 L3.39128583,8.475526 L3.39128583,8.475526 C3.39128583,8.61713779 3.27648702,8.73193661 3.13487523,8.73193661 C3.13487523,8.73193661 3.13487523,8.73193661 3.13487523,8.73193661 L2.58359303,8.73193661 L2.58359302,8.73193661 C2.44198123,8.73193661 2.32718242,8.84673542 2.32718242,8.98834721 C2.32718242,8.98834721 2.32718242,8.98834721 2.32718242,8.98834721 L2.32718242,11.8088643 L2.32718242,11.8088643 C2.32718242,11.9504761 2.21238361,12.0652749 2.07077181,12.0652749 L1.31384786,12.0652749 L1.31384784,12.0652749 C1.17223605,12.0652749 1.05743724,11.9504761 1.05743724,11.8088643 L1.05743724,8.98834721 L1.05743724,8.98834721 C1.05743724,8.84673541 0.942638428,8.7319366 0.801026634,8.7319366 C0.801026634,8.7319366 0.801026634,8.7319366 0.801026634,8.7319366 L0.256410616,8.7319366 L0.256410605,8.7319366 C0.114798811,8.73193659 2.85125459e-14,8.61713779 2.85125459e-14,8.475526 C2.85125459e-14,8.475526 2.85125459e-14,8.475526 2.85125459e-14,8.475526 L2.85125459e-14,7.87296069 L2.85125459e-14,7.87296073 C2.85125459e-14,7.73134894 0.114798811,7.61655009 0.256410605,7.61655009 C0.256410605,7.61655009 0.256410605,7.61655009 0.256410605,7.61655009 L3.134877,7.61655009 L3.13487524,7.61655009 Z" id="路径"></path>
            <path d="M10.4743829,7.61655009 C11.8784882,7.61655009 12.3143856,8.05244798 12.3143856,9.19962886 C12.3143856,10.4498857 11.8077204,10.8534754 10.474382,10.8534754 L10.2759202,10.8534754 C10.1343084,10.8534754 10.0195096,10.9682742 10.0195096,11.109886 L10.0195096,11.8088607 C10.0195096,11.9504725 9.90471078,12.0652713 9.76309898,12.0652713 L9.00002267,12.0652713 C8.85841088,12.0652713 8.74361206,11.9504725 8.74361206,11.8088607 L8.74361206,7.87296073 C8.74361206,7.73134894 8.85841088,7.61655009 9.00002267,7.61655009 L10.4743829,7.61655009 Z M10.2882429,8.59757391 L10.2759352,8.59757391 C10.1343234,8.59757391 10.0195246,8.71237366 10.0195246,8.85398546 L10.0195246,9.584754 C10.0195246,9.72636579 10.1343234,9.8411646 10.2759352,9.8411646 L10.2882429,9.8411646 C10.8205497,9.8411646 11.0128592,9.69962582 11.0128592,9.23193312 C11.0128592,8.73860022 10.8077308,8.59757391 10.2882429,8.59757391 Z" id="形状结合"></path>
            <path d="M6.74616545,0.106229552 L6.74616545,0.106229553 C6.75062861,0.110483092 6.75498887,0.114843318 6.75924237,0.119306476 L9.7069351,3.21392546 L9.70693512,3.21392548 C9.85350305,3.36767543 9.8476813,3.61113072 9.69393148,3.75769865 C9.6223837,3.82590456 9.52732244,3.86394501 9.42847309,3.86392608 L8.40308578,3.86392608 L8.40308576,3.86392608 C8.19066807,3.86392609 8.01846986,4.0361243 8.01846986,4.24854199 L8.01846986,6.17315962 L8.01846986,6.17315961 C8.01846986,6.3855773 7.84627164,6.55777552 7.63385395,6.55777552 L5.32616121,6.55777552 L5.32616119,6.55777552 C5.1137435,6.55777552 4.94154529,6.3855773 4.94154529,6.17315961 L4.94154529,4.24854198 L4.94154529,4.24854198 C4.94154529,4.03612429 4.76934707,3.86392608 4.55692938,3.86392608 L3.53154207,3.86392608 L3.53154208,3.86392608 C3.31912439,3.86396658 3.14685315,3.69180088 3.14685315,3.47938386 C3.14685315,3.38053519 3.18487461,3.28547326 3.25308059,3.21392547 L6.20308553,0.119306486 L6.20308549,0.11930652 C6.34961218,-0.034482646 6.59306612,-0.0403699726 6.74685528,0.10615631 C6.7468809,0.106180718 6.74690651,0.10620513 6.74693213,0.106229546 L6.74616545,0.106229552 Z" id="路径"></path>
        </g>
    </g>
</svg>