<?xml version="1.0" encoding="UTF-8"?>
<svg width="24px" height="24px" viewBox="0 0 24 24" version="1.1" xmlns="http://www.w3.org/2000/svg" xmlns:xlink="http://www.w3.org/1999/xlink">
    <!-- Generator: Sketch 63.1 (92452) - https://sketch.com -->
    <title>UIicon/24/harmonyos connect/normal</title>
    <desc>Created with Sketch.</desc>
    <g id="UIicon/24/harmonyos-connect/normal" stroke="none" stroke-width="1" fill="none" fill-rule="evenodd">
        <g id="UIicon/24/harmonyos-connect/line" fill="#777777">
            <g id="形状结合">
                <path d="M7,14.25 C7.37969577,14.25 7.69349096,14.5321539 7.74315338,14.8982294 L7.75,15 L7.75,21 C7.75,21.4142136 7.41421356,21.75 7,21.75 C6.62030423,21.75 6.30650904,21.4678461 6.25684662,21.1017706 L6.25,21 L6.25,15 C6.25,14.5857864 6.58578644,14.25 7,14.25 Z M7,2.25 C7.37969577,2.25 7.69349096,2.53215388 7.74315338,2.89822944 L7.75,3 L7.74924805,7.60168469 C7.87063137,10.3103398 9.44492823,12.3963443 11.2849094,12.5203762 L11.4581497,12.5262154 L12.0230687,12.5358087 L14.3877258,12.5219087 C16.2473222,12.5624704 17.6591618,14.4129144 17.7455857,16.6491119 L17.7497822,16.8666745 L17.75,20.9999605 C17.75,21.414174 17.4142531,21.75 17.0000395,21.75 C16.6203437,21.75 16.3065337,21.4678827 16.256852,21.1018097 L16.25,21.0000395 L16.2497822,16.8667141 C16.2497822,15.3385634 15.4235737,14.1462986 14.4972096,14.0306368 L14.3758712,14.0217169 L12.0150899,14.0356913 L11.4456704,14.0261116 C8.70071197,14.0261116 6.51470559,11.320412 6.26480979,7.88770338 L6.25,7.63526084 L6.25,3 C6.25,2.58578644 6.58578644,2.25 7,2.25 Z M17,2.25 C17.3796958,2.25 17.693491,2.53215388 17.7431534,2.89822944 L17.75,3 L17.75,9 C17.75,9.41421356 17.4142136,9.75 17,9.75 C16.6203042,9.75 16.306509,9.46784612 16.2568466,9.10177056 L16.25,9 L16.25,3 C16.25,2.58578644 16.5857864,2.25 17,2.25 Z"></path>
            </g>
        </g>
    </g>
</svg>