<?xml version="1.0" encoding="UTF-8"?>
<svg width="175px" height="77px" viewBox="0 0 175 77" version="1.1" xmlns="http://www.w3.org/2000/svg" xmlns:xlink="http://www.w3.org/1999/xlink">
    <!-- Generator: Sketch 63.1 (92452) - https://sketch.com -->
    <title>bg</title>
    <desc>Created with Sketch.</desc>
    <defs>
        <linearGradient x1="14.6267645%" y1="82.9648429%" x2="89.4602052%" y2="17.9520314%" id="linearGradient-1">
            <stop stop-color="#ECF9FF" stop-opacity="0.572388549" offset="0%"></stop>
            <stop stop-color="#C2EEFF" offset="100%"></stop>
        </linearGradient>
        <linearGradient x1="48.3026328%" y1="64.1180056%" x2="55.1231234%" y2="34.0825594%" id="linearGradient-2">
            <stop stop-color="#E0F2FE" stop-opacity="0.393493226" offset="0%"></stop>
            <stop stop-color="#BDE2FD" offset="100%"></stop>
        </linearGradient>
        <linearGradient x1="48.3026328%" y1="64.0018881%" x2="55.1231234%" y2="34.2134768%" id="linearGradient-3">
            <stop stop-color="#E0F2FE" stop-opacity="0.393493226" offset="0%"></stop>
            <stop stop-color="#BDE2FD" offset="100%"></stop>
        </linearGradient>
        <linearGradient x1="48.3026328%" y1="63.6374805%" x2="55.1231234%" y2="34.6243307%" id="linearGradient-4">
            <stop stop-color="#E0F2FE" stop-opacity="0.393493226" offset="0%"></stop>
            <stop stop-color="#BDE2FD" offset="100%"></stop>
        </linearGradient>
    </defs>
    <g id="bg" stroke="none" stroke-width="1" fill="none" fill-rule="evenodd">
        <g id="编组-64">
            <circle id="椭圆形备份-4" fill="url(#linearGradient-1)" opacity="0.776367188" cx="3" cy="69" r="3"></circle>
            <g id="编组-63" transform="translate(22.000000, 0.000000)" opacity="0.597051711">
                <path d="M37.6910555,32.7564766 C37.0598003,34.2391457 37.2468388,35.9976668 38.167018,37.913827 C39.0886017,39.8329118 40.7478708,41.9151251 43.0124898,44.0258378 C47.4139909,48.1282072 54.1097119,52.3499484 62.0594273,55.7142485 C70.0090637,59.0785151 77.7062458,60.9478506 83.7236321,61.2547501 C86.8194237,61.4126421 89.4741779,61.156254 91.4988486,60.4841344 C93.5201399,59.8131366 94.9185717,58.7258833 95.5496952,57.2435234 C96.1809504,55.7608543 95.993912,54.0023332 95.0737327,52.086173 C94.152149,50.1670882 92.49288,48.0848749 90.2282609,45.9741622 C85.8267598,41.8717928 79.1310388,37.6500516 71.1813234,34.2857515 C63.2316871,30.9214849 55.5345049,29.0521494 49.5171186,28.7452499 C46.421327,28.5873579 43.7665728,28.843746 41.7419021,29.5158656 C39.7206108,30.1868634 38.322179,31.2741167 37.6910555,32.7564766 Z" id="椭圆形" stroke="url(#linearGradient-2)" stroke-width="0.6"></path>
                <path d="M22.9804433,22.9744978 C22.0163293,25.2296419 22.3192792,27.9024533 23.7221907,30.8118056 C25.156372,33.786005 27.7414418,37.0107366 31.2652781,40.281554 C38.1525906,46.6743429 48.6310375,53.2511099 61.0701748,58.4936291 C73.5091878,63.736096 85.5528333,66.6514015 94.9686251,67.1296481 C99.785793,67.3743215 103.917508,66.9806249 107.068325,65.9389744 C110.14997,64.920192 112.296403,63.2801572 113.260307,61.0255022 C114.224421,58.7703581 113.921472,56.0975467 112.51856,53.1881944 C111.084379,50.213995 108.499309,46.9892634 104.975473,43.718446 C98.0881601,37.3256571 87.6097132,30.7488901 75.1705759,25.5063709 C62.731563,20.263904 50.6879174,17.3485985 41.2721256,16.8703519 C36.4549577,16.6256785 32.323243,17.0193751 29.1724258,18.0610256 C26.0907807,19.079808 23.9443482,20.7198428 22.9804433,22.9744978 Z" id="椭圆形备份-7" stroke="url(#linearGradient-3)" stroke-width="0.4"></path>
                <path d="M1.34232633,9.01751021 C-0.110735522,12.4005815 0.399522611,16.4257805 2.58543426,20.8171522 C4.84362139,25.3537213 8.89061919,30.2827954 14.3903746,35.2943964 C25.170291,45.117495 41.5341033,55.26172 60.9276672,63.3973003 C80.321133,71.5328394 99.0719808,76.1192215 113.710229,76.9590427 C121.178169,77.3874912 127.576916,76.8405736 132.447429,75.2946329 C137.161633,73.7983058 140.445538,71.3651533 141.898424,67.9824898 C143.351486,64.5994185 142.841228,60.5742195 140.655316,56.1828478 C138.397129,51.6462787 134.350132,46.7172046 128.850376,41.7056036 C118.07046,31.882505 101.706647,21.73828 82.3130835,13.6026997 C62.9196178,5.46716056 44.16877,0.880778478 29.5305221,0.0409572598 C22.0625816,-0.387491208 15.6638344,0.159426427 10.7933217,1.70536707 C6.07911741,3.20169416 2.79521302,5.6348467 1.34232633,9.01751021 Z" id="椭圆形备份-8" stroke="url(#linearGradient-4)" stroke-width="0.2"></path>
            </g>
            <circle id="椭圆形" fill="url(#linearGradient-1)" opacity="0.821126302" cx="157.5" cy="51.5" r="17.5"></circle>
            <circle id="椭圆形备份-3" fill="url(#linearGradient-1)" opacity="0.688151042" cx="28.5" cy="28.5" r="6.5"></circle>
        </g>
    </g>
</svg>