<?xml version="1.0" encoding="UTF-8"?>
<svg width="20px" height="20px" viewBox="0 0 20 20" version="1.1" xmlns="http://www.w3.org/2000/svg" xmlns:xlink="http://www.w3.org/1999/xlink">
    <!-- Generator: Sketch 61.2 (89653) - https://sketch.com -->
    <title>UIicon/20/hot@1x</title>
    <desc>Created with Sketch.</desc>
    <g id="UIicon/20/hot" stroke="none" stroke-width="1" fill="none" fill-rule="evenodd">
        <rect id="矩形" fill="#FFAB40" x="0" y="0" width="20" height="20" rx="2.5"></rect>
        <path d="M8.732804,2 C12.4611595,3.73401797 13.0682999,7.71304472 13.0682999,7.71304472 C14.2398245,6.27221819 13.2136716,4.83976856 13.2136716,4.83976856 C16.1809637,7.71304472 17.0104373,11.2564727 16.2151688,13.9035726 C15.6251309,15.9140283 13.0229987,17.992242 9.97273874,18 C6.92247879,18.0075099 5.19257653,16.9695175 4.06380835,14.8334084 C2.82387361,12.471123 3.91843669,9.9245459 4.59398735,8.70989563 C5.269538,7.49524536 5.269538,6.46488685 5.269538,6.46488685 C6.06480649,7.34446119 5.91088355,8.89418739 5.91088355,8.89418739 C5.91088355,8.89418739 7.12516447,7.41147637 8.13421481,5.61044321 C9.14326515,3.80941006 8.732804,2 8.732804,2 Z M7.95994241,10.5394928 C7.71343458,10.5394928 7.51347019,10.7417894 7.51347019,10.9902239 L7.51347019,10.9902239 L7.51347019,11.8331265 L6.59294445,11.8473228 L6.59294445,11.0150673 C6.59294445,10.7666329 6.39298005,10.5643362 6.14647222,10.5643362 C5.89996439,10.5643362 5.7,10.7666329 5.7,11.0150673 L5.7,11.0150673 L5.7,13.7833371 C5.7,14.0317716 5.89996439,14.2340682 6.14647222,14.2340682 C6.39298005,14.2340682 6.59294445,14.0317716 6.59294445,13.7833371 L6.59294445,13.7833371 L6.59294445,12.748785 L7.51347019,12.7345887 L7.51347019,13.7584936 C7.51347019,14.0069281 7.71343458,14.2092247 7.95994241,14.2092247 C8.20645024,14.2092247 8.40641463,14.0069281 8.40641463,13.7584936 L8.40641463,13.7584936 L8.40641463,10.9902239 C8.40641463,10.7417894 8.20645024,10.5394928 7.95994241,10.5394928 Z M14.6104823,10.6140231 L12.5849809,10.6140231 C12.3384731,10.6140231 12.1385087,10.8163198 12.1385087,11.0647542 C12.1402325,11.1854224 12.1884998,11.300767 12.2712437,11.3859445 C12.3557114,11.471122 12.4677604,11.5190344 12.5849809,11.5172599 L12.5849809,11.5172599 L13.1521213,11.5172599 L13.1521213,13.7336502 C13.1521213,13.9820847 13.3520857,14.1843813 13.5985935,14.1843813 C13.8451014,14.1843813 14.0450658,13.9820847 14.0450658,13.7336502 L14.0450658,13.7336502 L14.0450658,11.5172599 L14.6122062,11.5172599 C14.7294267,11.5190344 14.8431995,11.471122 14.9242196,11.3859445 C15.0086873,11.300767 15.0552307,11.1854224 15.0569545,11.0647542 C15.0569545,10.8163198 14.8569902,10.6140231 14.6104823,10.6140231 L14.6104823,10.6140231 Z M10.564651,10.5164239 C9.70790702,10.5164239 9.01147931,11.3327086 9.01147931,12.3353191 C9.01147931,13.3379296 9.70790702,14.1542143 10.564651,14.1542143 C11.421395,14.1542143 12.1178227,13.3379296 12.1195466,12.3353191 C12.1195466,11.3327086 11.421395,10.5164239 10.564651,10.5164239 Z M10.564651,11.4196606 C10.9232079,11.4196606 11.2266021,11.8384501 11.2266021,12.3370936 C11.2266021,12.8357371 10.9232079,13.2545266 10.564651,13.2545266 C10.2060942,13.2545266 9.90269992,12.8339625 9.90269992,12.3370936 C9.90269992,11.8384501 10.2060942,11.4196606 10.564651,11.4196606 Z" id="形状结合" fill="#FFFFFF" fill-rule="nonzero"></path>
    </g>
</svg>