<?xml version="1.0" encoding="UTF-8"?>
<svg width="54px" height="54px" viewBox="0 0 54 54" version="1.1" xmlns="http://www.w3.org/2000/svg" xmlns:xlink="http://www.w3.org/1999/xlink">
    <!-- Generator: Sketch 63.1 (92452) - https://sketch.com -->
    <title>Label/original poster</title>
    <desc>Created with Sketch.</desc>
    <defs>
        <linearGradient x1="8.00972057%" y1="8.98980488%" x2="48.4896656%" y2="46.0422234%" id="linearGradient-1">
            <stop stop-color="#10100F" offset="0%"></stop>
            <stop stop-color="#626262" offset="100%"></stop>
        </linearGradient>
        <linearGradient x1="42.7032996%" y1="40.7062323%" x2="50%" y2="40.7062323%" id="linearGradient-2">
            <stop stop-color="#FCBF62" offset="0%"></stop>
            <stop stop-color="#FDD279" offset="100%"></stop>
        </linearGradient>
    </defs>
    <g id="Label/original-poster" stroke="none" stroke-width="1" fill="none" fill-rule="evenodd">
        <polygon id="矩形" fill="url(#linearGradient-1)" points="10 10 53 10 10 53"></polygon>
        <path d="M15.24,30.2 L15.24,24.356 C15.468,24.716 15.732,25.16 16.032,25.688 L16.632,24.788 C16.164,24.188 15.696,23.636 15.24,23.132 L15.24,22.484 L16.512,22.484 L16.512,21.416 L15.24,21.416 L15.24,19.16 L14.16,19.16 L14.16,21.416 L12.66,21.416 L12.66,22.484 L14.112,22.484 C13.752,23.84 13.176,25.052 12.36,26.12 L12.852,27.38 C13.38,26.516 13.812,25.556 14.16,24.512 L14.16,30.2 L15.24,30.2 Z M22.932,24.872 L23.616,24.008 C22.68,23.552 21.984,23.024 21.516,22.448 L23.184,22.448 L23.184,21.404 L20.592,21.404 L20.592,19.172 L19.488,19.172 L19.488,21.404 L16.86,21.404 L16.86,22.448 L18.492,22.448 C17.892,23.096 17.208,23.612 16.464,23.996 L17.088,24.872 C17.988,24.332 18.792,23.528 19.488,22.448 L19.488,24.608 L20.592,24.608 L20.592,22.448 L20.604,22.448 C21.084,23.336 21.852,24.14 22.932,24.872 Z M21.948,21.26 C22.344,20.732 22.668,20.18 22.908,19.616 L21.984,19.184 C21.768,19.712 21.468,20.252 21.084,20.804 L21.948,21.26 Z M18.024,21.224 L18.984,20.804 C18.744,20.228 18.456,19.7 18.144,19.208 L17.148,19.532 C17.46,20.024 17.76,20.588 18.024,21.224 Z M16.908,30.308 C18.516,29.996 19.716,29.576 20.508,29.072 C21.492,29.504 22.308,29.912 22.98,30.296 L23.604,29.384 C22.884,29.012 22.128,28.664 21.336,28.34 C21.792,27.824 22.104,27.2 22.272,26.48 L23.52,26.48 L23.52,25.46 L19.776,25.46 C19.872,25.244 19.956,25.016 20.052,24.788 L18.936,24.656 C18.84,24.92 18.744,25.184 18.624,25.46 L16.524,25.46 L16.524,26.48 L18.132,26.48 C17.916,26.888 17.652,27.332 17.364,27.788 C18.036,28.04 18.672,28.292 19.272,28.544 C18.576,28.856 17.652,29.12 16.488,29.312 L16.908,30.308 Z M20.28,27.908 C19.764,27.716 19.236,27.524 18.696,27.344 C18.888,27.068 19.08,26.78 19.248,26.48 L21.216,26.48 C21.036,27.032 20.724,27.512 20.28,27.908 Z M36.364,29.828 L36.364,28.712 L31.576,28.712 L31.576,25.784 L35.368,25.784 L35.368,24.716 L31.576,24.716 L31.576,22.22 L35.944,22.22 L35.944,21.104 L31.504,21.104 L31.54,21.092 C31.372,20.492 31.144,19.832 30.844,19.112 L29.74,19.412 C30.004,19.952 30.232,20.516 30.424,21.104 L26.068,21.104 L26.068,22.22 L30.424,22.22 L30.424,24.716 L26.644,24.716 L26.644,25.784 L30.424,25.784 L30.424,28.712 L25.648,28.712 L25.648,29.828 L36.364,29.828 Z" id="楼主" fill="#FFD3AA" fill-rule="nonzero" transform="translate(24.362000, 24.710000) rotate(-45.000000) translate(-24.362000, -24.710000) "></path>
        <g id="编组-53" transform="translate(-1.000000, 0.000000)">
            <g id="编组-41" transform="translate(13.000000, 12.500000) rotate(-45.000000) translate(-13.000000, -12.500000) translate(4.000000, 4.000000)">
                <g id="编组-14" transform="translate(1.000000, 0.000000)">
                    <g id="版主" transform="translate(0.000000, 2.000000)" fill-rule="nonzero">
                        <path d="M15.2789636,4.48230441 L15.2789636,4.4823044 C15.0354949,4.27863829 14.6958652,4.23502062 14.4088329,4.37055824 L7.9201,7.44282689 L1.43063371,4.36980745 L1.43063374,4.36980746 C1.14383198,4.23440027 0.80448333,4.27801829 0.561248602,4.48155362 L0.561248612,4.48155361 C0.317343407,4.68550782 0.215355828,5.01332217 0.30050815,5.31964983 L2.30895334,12.6285996 L2.30895332,12.6285995 C2.39397469,12.9497824 2.62693401,13.2112388 2.93622119,13.3326003 C3.11650442,13.402628 3.32956768,13.4771253 3.57913353,13.5546033 L12.2655294,13.5546033 L12.2655296,13.5546033 C12.5224044,13.4773808 12.775918,13.3893961 13.0254035,13.2908823 L13.0254036,13.2908823 C13.2528035,13.202106 13.4250637,13.0113492 13.4902676,12.7761044 L15.540443,5.31891632 L15.540443,5.31891614 C15.6236169,5.01292198 15.5215838,4.68647303 15.278957,4.4823093" id="路径" fill="#FCAE4C"></path>
                        <path d="M7.90670268,14.1461125 C10.4478104,14.1461125 12.1649822,13.6320801 13.0097832,13.2975872 C13.2526443,13.2022305 13.4306943,12.995127 13.499977,12.7433262 L14.3440324,9.67402584 L8.54962724,0.548083478 L8.54962723,0.548083464 C8.33020317,0.201012107 7.87097009,0.0975334156 7.52389874,0.31695748 C7.42991236,0.376377105 7.35045088,0.456121436 7.29136545,0.550318387 L1.50291427,9.69263855 L2.33803,12.7351199 C2.40656759,12.9824508 2.58163664,13.1895548 2.81928406,13.2864003 C3.6365204,13.6186584 5.33580762,14.1461125 7.90672013,14.1461125" id="路径" fill="#FDD279"></path>
                        <path d="M7.92011222,0.202426409 C7.66533097,0.20317139 7.42842911,0.333541848 7.29135324,0.548839511 L1.50290206,9.69266126 L2.34397875,12.7522712 C2.40879152,12.989173 2.57417584,13.1858463 2.80213801,13.2789675 C3.61341515,13.6119711 5.32388222,14.1476071 7.92011222,14.1461208 L7.92011222,0.202426409 L7.92011222,0.202426409 Z" id="路径" fill="#FCAE4C" opacity="0.5"></path>
                        <path d="M9.56501572,8.17439759 L8.28291534,6.59505242 L8.28291537,6.59505245 C8.12141475,6.39653365 7.82956119,6.36652456 7.63104239,6.52802518 C7.60646748,6.54801762 7.58400755,6.57047755 7.56401512,6.59505245 L6.28265855,8.17439762 L6.28265857,8.17439759 C6.14492164,8.3444433 6.14492164,8.58766633 6.28265853,8.75771256 L7.5640151,10.3363139 L7.56401511,10.3363139 C7.72420865,10.5348327 8.01500167,10.5659017 8.21352222,10.405708 C8.23905237,10.3851067 8.26231496,10.3618439 8.28291623,10.3363139 L9.56427281,8.75696877 L9.56427281,8.75696876 C9.70217823,8.58726248 9.70217823,8.34410511 9.5642728,8.17439935" id="路径" fill="#FC795C"></path>
                    </g>
                    <circle id="椭圆形" fill="url(#linearGradient-2)" cx="8" cy="1.5" r="1.5"></circle>
                    <circle id="椭圆形备份-2" fill="#FCAE4C" cx="15.5" cy="6.5" r="1.5"></circle>
                </g>
                <circle id="椭圆形备份" fill="#FCAE4C" cx="1.5" cy="6.5" r="1.5"></circle>
            </g>
            <path d="M4.5,9 C4.5,9 4.64293993,9.88985377 5.00864295,10.3774584 C5.37434531,10.8650591 6,11 6,11 C6,11 5.38170708,11.1251241 5.00087292,11.6329071 C4.62003877,12.1406862 4.5,13 4.5,13 C4.5,13 4.4030549,12.1714708 4.02317399,11.6649707 C3.64329242,11.1584705 3,11 3,11 C3,11 3.62676327,10.8635824 4.0049853,10.3592813 C4.38320732,9.85497976 4.5,9 4.5,9 Z" id="路径" fill="#FEDD7C" fill-rule="nonzero" transform="translate(4.500000, 11.000000) rotate(-16.000000) translate(-4.500000, -11.000000) "></path>
        </g>
    </g>
</svg>